<svg width="1440" height="1235" viewBox="0 0 1440 1235" fill="none" xmlns="http://www.w3.org/2000/svg">
<rect y="4" width="1440" height="1231" fill="#171B1B"/>
<path d="M0.850586 144.815C21.2837 155.712 59.5122 149.549 77.8762 136.923C88.1109 129.887 93.5283 116.144 102.751 107.76C118.452 93.4861 145.555 84.9769 165.881 79.9691C195.135 72.7616 235.545 73.5919 250.798 43.086C253.593 37.4953 260.34 29.1479 264.007 25.0734C270.263 18.1227 271.322 10.2105 278.76 2.77197" stroke="#9EAD8D" stroke-width="5" stroke-linecap="round"/>
<path d="M1435.26 595.113C1426.86 596.856 1414.42 598.574 1412.09 608.159C1409.57 618.519 1410.47 630.888 1403.42 639.702C1394.26 651.156 1380.17 655.688 1372.46 669.492C1367.66 678.108 1364.1 687.318 1358.93 695.778C1353.88 704.045 1347.41 711.381 1342.77 719.921C1335.54 733.24 1335.23 743.762 1346.08 754.774C1356.53 765.378 1367.96 768.544 1371.2 784.467C1372.68 791.724 1372.89 800.442 1377.23 806.761C1382.7 814.718 1392.79 819.567 1400.5 824.967C1425.24 842.282 1438.79 858.885 1454.53 884.255" stroke="#9EAD8D" stroke-width="5" stroke-linecap="round"/>
</svg>
