<svg width="337" height="242" viewBox="0 0 337 242" fill="none" xmlns="http://www.w3.org/2000/svg">
<path fill-rule="evenodd" clip-rule="evenodd" d="M333.978 179.547C333.984 179.294 333.991 179.029 334.001 178.749C336.023 178.762 336.411 178.492 336.373 176.646L336.371 176.527C336.354 175.638 336.335 174.693 335.682 173.785C335.365 173.346 335.112 172.854 334.86 172.363C334.619 171.894 334.377 171.425 334.079 170.998C332.849 169.241 331.469 167.661 329.512 166.975C328.884 166.755 328.26 166.502 327.614 166.24L327.614 166.24L327.613 166.24L327.613 166.24L327.613 166.24L327.613 166.239C327.315 166.118 327.011 165.995 326.7 165.873L326.066 166.226C325.989 166.268 325.913 166.312 325.836 166.356C325.683 166.443 325.53 166.531 325.373 166.611C324.151 167.236 324.148 167.233 322.705 165.765L322.672 165.731C322.537 165.593 322.365 165.478 322.196 165.365C321.941 165.194 321.693 165.027 321.592 164.796C320.99 163.426 320.004 163.112 318.9 162.916L319.366 164.659L319.885 166.6L319.499 166.707L317.759 163.581C315.915 164.027 316.47 165.393 316.988 166.668C317.02 166.747 317.052 166.826 317.083 166.905C315.829 166.913 315.038 167.24 315.213 168.647C315.354 169.778 314.815 169.558 314.265 169.334C314.19 169.303 314.114 169.272 314.04 169.245C314.065 171.495 314.794 173.798 316.107 175.77C317.076 177.334 317.957 178.954 318.839 180.575C319.293 181.409 319.746 182.244 320.212 183.071C320.502 183.542 320.811 184 321.138 184.444L321.368 184.3L320.082 181.462C320.726 182.01 321.265 182.703 321.653 183.483C322.07 184.202 322.531 184.893 323.033 185.551C323.544 186.114 324.084 186.644 324.649 187.137L324.295 185.627C326.054 186.932 326.056 186.93 327.277 185.686L327.286 185.676C327.454 185.507 327.726 185.242 327.877 185.309C328.706 185.69 328.948 185.367 329.225 184.591C329.289 184.41 329.602 184.401 329.946 184.393C330.264 184.384 330.608 184.375 330.81 184.229C331.318 183.812 331.715 183.257 331.975 182.606C332.16 182.192 332.511 182.219 332.854 182.245C333.17 182.269 333.478 182.293 333.64 181.969C333.774 181.743 333.864 181.484 333.907 181.205C333.948 180.677 333.962 180.142 333.978 179.547ZM275.921 178.022C276.143 177.797 276.611 177.816 277.501 177.852C277.503 177.539 277.573 177.248 277.645 176.954C277.797 176.327 277.952 175.688 277.444 174.803C276.791 173.633 275.801 172.706 274.67 172.208C274.542 172.148 274.409 172.079 274.276 172.01C273.849 171.787 273.408 171.557 273.036 171.594C271.947 171.701 270.938 171.239 269.932 170.778C269.442 170.554 268.954 170.33 268.457 170.172C266.695 169.61 265.367 168.11 264.356 166.526C261.903 162.68 258.443 160.524 254.986 158.37L254.707 158.196C253.587 157.499 252.541 157.846 251.478 158.197C251.297 158.258 251.115 158.318 250.932 158.373L250.842 158.4C248.859 158.999 248.393 159.139 248.588 161.076C248.595 161.148 248.602 161.219 248.61 161.289C248.737 162.506 248.819 163.299 247.284 162.805C247.169 162.766 246.982 163.169 246.838 163.481C246.812 163.537 246.788 163.589 246.766 163.635C246.706 163.761 246.655 163.946 246.608 164.115C246.545 164.344 246.489 164.544 246.432 164.533C245.026 164.233 245.558 165.361 245.824 165.925L245.838 165.954C245.928 166.145 246.017 166.338 246.108 166.533L246.108 166.533C246.702 167.815 247.317 169.142 248.205 170.135C248.519 170.485 248.812 170.872 249.106 171.262C249.843 172.237 250.59 173.225 251.69 173.665C252.422 173.887 253.07 174.48 253.425 175.253C253.646 175.585 253.939 175.855 254.27 176.031C254.478 176.173 254.687 176.315 254.895 176.458C255.8 177.077 256.705 177.696 257.638 178.232C258.265 178.592 258.907 178.907 259.549 179.222C260.205 179.544 260.862 179.866 261.501 180.236C262.405 180.757 263.337 181.198 264.256 181.632L264.256 181.632L264.257 181.632C264.439 181.719 264.621 181.804 264.803 181.891C265.009 181.989 265.217 182.092 265.425 182.196L265.427 182.197L265.428 182.197L265.429 182.198C266.846 182.902 268.307 183.628 269.832 183.086C270.946 182.76 272.087 182.505 273.247 182.322C273.412 181.374 274.073 181.063 274.731 180.753C275.154 180.554 275.575 180.356 275.864 179.99C275.736 178.824 275.675 178.272 275.921 178.022ZM2.4225 89.2909C3.47266 91.923 3.94849 94.5222 3.20794 96.9059C3.49092 97.3125 3.75493 97.6811 4.00233 98.0264C4.49619 98.7158 4.92389 99.3128 5.30438 99.9361C6.04964 101.165 7.04188 102.284 8.20733 102.044C9.59766 101.759 10.6131 101.924 11.5226 103.429C11.6455 103.592 11.8202 103.694 11.9966 103.708C13.4858 103.677 14.8884 104.325 16.2907 104.972C17.022 105.31 17.7533 105.647 18.4967 105.888C18.5995 105.922 18.6968 105.954 18.7893 105.984C20.4529 106.53 20.542 106.559 22.3105 105.366C22.6657 105.126 22.9997 104.853 23.3833 104.538L23.3835 104.538C23.5735 104.383 23.7757 104.217 23.9987 104.041C25.4525 104.732 26.8804 105.518 28.274 106.395C28.6519 106.656 29.0656 106.848 29.4801 107.041C30.3524 107.447 31.228 107.855 31.7792 108.905C32.5395 108.63 33.2701 109.008 33.9329 109.351C34.3644 109.574 34.7671 109.783 35.1306 109.786L37.1628 107.91L36.2928 106.347C36.5336 106.422 36.7186 106.48 36.8548 106.522C36.9625 106.556 37.0396 106.58 37.0897 106.596L37.5767 105.415C33.631 102.1 29.4701 99.1606 25.1497 96.6356C24.474 96.2823 23.9886 95.5443 23.9171 94.7617C24.5829 95.1732 25.2364 95.5639 25.878 95.9476L25.8789 95.9481L25.8825 95.9503L25.8835 95.9509L25.8839 95.9511L25.8841 95.9513L25.8843 95.9514L25.8844 95.9515L25.8846 95.9516L25.8848 95.9517L25.885 95.9518L25.8865 95.9527C27.3017 96.7989 28.6591 97.6106 29.9633 98.5327C31.6353 99.7152 33.2632 100.991 34.8941 102.27L34.896 102.271L34.8978 102.273L34.8997 102.274L34.9015 102.276C35.6034 102.826 36.3058 103.376 37.0125 103.92C37.6596 102.154 37.6551 102.15 36.427 101.074L36.3719 101.026C32.7942 97.893 28.937 95.3057 25.0911 92.726L25.0907 92.7257L25.083 92.7205L25.0753 92.7153C24.4948 92.3259 23.9145 91.9367 23.3355 91.5458C19.0034 88.6209 14.575 85.8559 9.76841 84.3022C8.8295 83.9986 7.93537 83.927 7.04281 83.8555C6.63689 83.823 6.23131 83.7905 5.82198 83.7363C5.31471 83.7442 4.88891 84.0405 4.69004 84.524C4.5599 85.2919 4.1551 85.6792 3.72001 86.0955L3.71991 86.0956C3.60905 86.2017 3.49621 86.3096 3.38545 86.4262C3.33318 86.4812 3.27897 86.5369 3.22382 86.5934C2.61417 87.2187 1.89158 87.9599 2.4225 89.2909ZM67.9963 154.475C68.6117 154.718 69.2066 154.968 69.7885 155.213L69.789 155.213C71.0256 155.734 72.2036 156.23 73.3954 156.577C77.4644 157.761 80.9185 160.446 84.3719 163.13L84.3721 163.13C85.1848 163.762 85.9974 164.393 86.818 165.005C88.4487 166.222 89.3839 168.045 90.3084 169.847C90.4811 170.183 90.6533 170.519 90.8297 170.85C90.9619 171.097 90.9051 171.443 90.8465 171.801C90.8188 171.97 90.7908 172.141 90.782 172.305L90.7452 172.276L90.7125 172.25C89.9716 171.663 89.2669 171.104 88.2512 170.301L90.3957 174.154C90.2553 174.399 90.1055 174.626 89.9608 174.845C89.645 175.322 89.353 175.764 89.2337 176.282C89.0245 177.032 88.4422 177.528 87.7108 177.579C87.2241 177.683 86.6654 177.559 86.0808 177.429C85.8207 177.372 85.5555 177.313 85.2893 177.272C84.5185 175.053 82.9226 173.723 81.1321 172.409C80.9202 172.639 80.6291 172.768 80.3329 172.898C79.8042 173.131 79.2593 173.371 79.1192 174.212C78.9591 174.553 78.641 174.753 78.2705 174.746C77.6784 174.672 77.0827 174.644 76.4867 174.617C74.5657 174.528 72.641 174.439 70.8205 172.779C70.7802 172.742 70.739 172.704 70.6972 172.666C70.2932 172.294 69.8232 171.861 69.4217 171.83C69.1411 171.808 68.9571 171.575 68.7743 171.343C68.5216 171.023 68.2711 170.705 67.7706 170.954C67.2981 171.189 67.1242 170.777 66.9473 170.359C66.8586 170.149 66.7691 169.937 66.6409 169.804C66.1427 169.339 65.6696 168.841 65.2252 168.312C64.8703 167.776 64.5516 167.217 64.2723 166.638C64.9317 163.812 64.9232 160.731 64.2477 157.662L67.9963 154.475ZM186.939 230.636L186.94 230.633C187.345 229.578 187.745 228.54 188.196 227.538C188.232 227.457 188.493 227.528 188.822 227.617L188.823 227.618L188.823 227.618L188.824 227.618C188.999 227.666 189.192 227.718 189.381 227.756C189.305 227.195 189.267 226.636 189.266 226.083C189.337 225.491 189.437 224.908 189.564 224.337C189.573 224.285 189.581 224.233 189.59 224.18C189.774 223.048 189.957 221.925 191.537 222.602C191.614 222.635 191.709 222.564 191.809 222.49C191.871 222.444 191.935 222.397 191.997 222.372C192.291 222.256 192.565 222.111 192.838 221.967C193.642 221.543 194.433 221.125 195.687 221.466C196.223 221.611 196.774 221.694 197.332 221.779L197.332 221.779C198.181 221.907 199.045 222.037 199.894 222.393C201.232 222.86 202.534 223.528 203.762 224.378C205.658 225.837 207.53 227.28 208.49 229.698C208.683 230.434 208.798 231.179 208.834 231.916L206.599 231.28C206.729 231.757 206.903 232.232 207.079 232.713L207.079 232.713C207.543 233.983 208.021 235.288 207.722 236.73L205.552 236.22L206.697 238.277C206.278 238.64 205.889 239.027 205.504 239.41C204.657 240.253 203.83 241.076 202.739 241.583C201.921 242.014 200.939 242.074 199.971 241.751C199.571 241.603 199.167 241.493 198.763 241.382C197.981 241.169 197.196 240.954 196.423 240.465C195.888 240.125 195.325 239.854 194.756 239.58C194.201 239.313 193.64 239.043 193.096 238.704C191.964 237.999 191.005 237.056 190.048 236.115L190.048 236.115C189.474 235.551 188.901 234.988 188.292 234.477C187.758 234.029 187.411 233.271 187.068 232.522C186.913 232.184 186.759 231.847 186.589 231.541C186.707 231.238 186.823 230.937 186.939 230.636ZM251.215 116.976L254.586 123.031L255.081 122.918C254.943 122.426 254.838 121.904 254.734 121.382C254.498 120.196 254.261 119.011 253.625 118.179C253.359 117.832 253.103 117.468 252.844 117.101L252.844 117.101C252.023 115.934 251.178 114.733 249.922 113.946C249.182 113.482 248.479 112.911 247.777 112.341C246.149 111.019 244.525 109.699 242.44 109.712C241.403 108.491 240.225 108.516 239.094 108.541C238.79 108.547 238.489 108.554 238.196 108.536C236.297 108.421 234.313 108.384 233.388 110.595C232.773 112.066 232.09 113.493 231.414 114.905L231.413 114.906L231.413 114.906L231.413 114.907L231.412 114.908C231.117 115.524 230.823 116.138 230.537 116.752C231.082 117.614 231.573 118.51 232.005 119.433C232.747 121.325 234.232 122.452 235.67 123.225C236.51 123.675 237.234 124.408 237.723 125.301C238.572 125.951 239.411 126.165 240.226 126.372C240.946 126.555 241.646 126.734 242.316 127.203C243.071 127.595 243.891 127.61 244.542 127.242C244.909 127.004 245.324 126.837 245.741 126.669C246.685 126.289 247.637 125.905 248.055 124.693C248.119 124.508 248.441 124.485 248.787 124.462C249.027 124.445 249.278 124.428 249.464 124.355C249.607 124.3 249.701 124.13 249.825 123.905C249.891 123.785 249.966 123.65 250.061 123.508C250.309 124.1 250.635 124.659 251.027 125.165C251.411 125.538 252.236 125.968 252.45 125.794C253.054 125.237 253.56 124.564 253.952 123.799C254.268 123.251 253.942 122.747 253.626 122.257C253.532 122.112 253.439 121.968 253.363 121.824C253.214 121.538 253.06 121.255 252.907 120.971L252.907 120.97C252.221 119.704 251.534 118.435 251.215 116.976ZM192.803 117.422L198.125 119.523C198.754 120.545 199.324 121.603 199.833 122.689C200.013 123.119 199.761 123.79 199.537 124.227C199.478 124.342 199.19 124.286 198.902 124.231L198.901 124.231L198.901 124.231C198.776 124.207 198.651 124.183 198.544 124.173C198.561 124.318 198.584 124.468 198.608 124.619L198.608 124.619C198.744 125.505 198.888 126.433 197.789 126.743C197.529 126.79 197.311 126.948 197.177 127.184C196.92 128.057 196.622 128.971 195.761 129.128C195.468 129.182 195.172 129.245 194.876 129.309L194.876 129.309L194.875 129.309L194.875 129.309L194.875 129.309L194.875 129.309L194.875 129.309C193.612 129.58 192.321 129.857 191.01 129.429C187.808 128.383 184.601 127.094 181.869 124.529C180.217 123.024 178.674 121.367 177.262 119.582C176.525 118.643 176.275 117.403 176.617 116.393C176.882 115.679 177.133 114.957 177.384 114.234L177.384 114.234L177.384 114.233L177.384 114.233L177.384 114.233L177.384 114.233L177.384 114.232L177.384 114.232L177.384 114.232L177.385 114.232L177.385 114.231L177.385 114.231L177.385 114.231L177.385 114.23L177.385 114.23L177.385 114.23L177.385 114.23L177.385 114.229L177.386 114.229L177.386 114.229C177.786 113.075 178.186 111.921 178.647 110.806C178.916 110.148 179.379 109.635 179.972 109.337C183.534 107.82 187.005 108.415 190.576 112.494C190.746 112.689 190.94 112.874 191.133 113.058C191.53 113.439 191.926 113.817 192.112 114.27C192.442 115.309 192.674 116.366 192.803 117.422ZM131.504 20.2216L130.285 18.6769C130.458 19.7601 130.764 20.594 131.804 21.1592C132.469 21.5208 133.066 22.0295 133.667 22.5422C134.478 23.2333 135.298 23.9316 136.302 24.2865C136.93 24.4545 137.55 24.7012 138.149 25.0215C141.642 27.4149 145.205 27.8812 148.822 27.8235C148.862 27.8229 148.904 27.8226 148.948 27.8223L148.961 27.8222L148.964 27.8222C149.381 27.8197 149.939 27.8162 150.003 27.5979C150.205 26.8985 150.667 26.8633 151.157 26.8261L151.157 26.8261L151.158 26.826L151.158 26.826L151.158 26.826C151.275 26.8171 151.393 26.8081 151.51 26.7899C151.85 26.7366 152.345 26.5586 152.401 26.2819C152.59 25.3488 153.068 24.6703 153.55 23.9864L153.553 23.9822C153.612 23.8987 153.671 23.8152 153.729 23.731C153.773 23.6677 153.817 23.6041 153.86 23.54C153.986 23.3522 154.205 22.9679 153.614 22.6323C153.323 22.4666 153.091 22.1331 152.826 21.753C152.698 21.5685 152.562 21.373 152.408 21.1804C153.924 21.2387 155.03 21.0204 155.037 19.516C154.712 19.2095 154.405 18.8883 154.106 18.5744C153.466 17.9043 152.858 17.2673 152.168 16.877C151.503 16.5009 150.866 16.0348 150.227 15.5684C148.863 14.571 147.496 13.5722 145.86 13.4496C142.859 11.2197 139.691 10.8773 136.51 10.5337L136.509 10.5335C136.241 10.5046 135.973 10.4757 135.706 10.4456C134.632 10.2025 133.656 10.7415 133.292 11.7785C133.285 11.7952 133.278 11.8122 133.271 11.8295L133.259 11.8613L133.237 11.9202L133.236 11.9203C133.079 12.3335 132.889 12.8337 132.082 12.5601C131.753 12.5273 131.452 12.6588 131.262 12.9188C131.072 13.1788 131.011 13.5403 131.098 13.9051C131.377 14.8424 131.252 15.7372 131.127 16.6352C130.966 17.7925 130.803 18.9552 131.504 20.2216ZM63.0197 228.453L63.7284 230.173C63.6399 230.154 63.5599 230.145 63.4889 230.136C63.3585 230.121 63.2586 230.109 63.1923 230.049C62.7629 229.657 62.3257 229.277 61.8885 228.897L61.8881 228.897C60.7185 227.88 59.5492 226.863 58.5291 225.627C58.4802 225.568 58.4312 225.509 58.3823 225.45C57.5498 224.448 56.7573 223.494 57.1622 222.121C57.2736 221.744 57.1006 221.3 56.9274 220.855C56.6469 220.135 56.3663 219.414 57.2958 218.979C57.236 217.306 58.3437 216.812 59.4165 216.334L59.4994 216.297C59.2001 215.33 58.9579 214.352 58.7746 213.37C58.6345 212.302 59.6058 211.437 61.0256 211.188C61.1575 211.166 61.3087 211.181 61.4575 211.196C61.6743 211.218 61.8859 211.24 62.0247 211.142L62.0735 211.108C63.8363 209.866 63.8401 209.863 65.6653 211.251C66.609 211.9 67.5275 212.601 68.4165 213.353C69.3691 214.284 70.5746 214.773 71.72 214.692C73.527 214.629 75.3935 215.629 76.6527 217.335C77.7981 218.86 78.0075 220.728 77.4609 222.592L76.4476 222.035L76.4424 222.032C75.621 221.581 74.7343 221.094 73.6242 220.485C73.8752 220.936 74.1004 221.338 74.3074 221.707L74.3082 221.708C74.7267 222.454 75.0703 223.067 75.4012 223.686C75.7956 224.424 75.7574 224.48 75.3074 225.137C75.193 225.304 75.052 225.509 74.8847 225.775C74.6855 226.092 74.3763 226.315 74.0671 226.538C73.4663 226.972 72.8651 227.406 73.0698 228.529L70.63 230.039C69.129 230.971 67.6469 231.528 65.7648 229.838C65.2542 229.377 64.6093 229.117 63.9422 228.849L63.9417 228.849L63.9409 228.848L63.9399 228.848C63.6342 228.725 63.3238 228.6 63.0197 228.453ZM288.135 89.7109C287.025 88.0475 285.16 87.2361 283.581 87.729L284.095 90.5567C282.862 89.2572 281.681 88.4149 280.118 89.0325C280.206 89.6912 280.263 90.3488 280.291 91.0028C280.291 91.1733 280.251 91.3483 280.211 91.5215C280.099 92.0098 279.99 92.4848 280.81 92.8119L279.356 93.4552C279.511 94.51 279.718 95.9197 279.911 97.2406C279.742 97.2769 279.576 97.3115 279.412 97.3455L279.411 97.3457C278.89 97.4538 278.395 97.5565 277.913 97.692C277.826 97.7129 277.763 98.0787 277.833 98.191C277.987 98.4338 278.279 98.8006 278.433 98.7818C278.587 98.7631 278.732 98.6642 278.873 98.5684C279.043 98.4531 279.205 98.3424 279.368 98.3826C279.551 98.4265 279.724 98.6647 279.961 98.9892C280.084 99.1581 280.224 99.3505 280.391 99.5509L278.903 99.0637C279.264 99.7124 279.619 100.35 279.968 100.979C281.252 103.288 282.47 105.479 283.705 107.662C283.779 107.793 283.918 107.883 284.06 107.974C284.17 108.046 284.282 108.118 284.367 108.212C284.836 108.731 285.38 109.172 285.914 109.603C286.966 110.454 287.977 111.272 288.293 112.598C289.567 113.834 290.502 113.426 291.381 113.042C291.957 112.79 292.509 112.549 293.118 112.789C293.308 112.437 293.468 112.056 293.624 111.684L293.624 111.684C293.959 110.884 294.276 110.129 294.838 109.81C295.455 109.461 295.69 108.822 295.921 108.195C296.156 107.556 296.386 106.93 297.011 106.637C297.171 106.562 297.191 105.828 297.027 105.541C296.73 105.024 296.604 104.48 296.476 103.929C296.334 103.314 296.19 102.692 295.805 102.091C294.296 99.7398 292.932 97.2941 291.723 94.7747C291.085 93.4353 290.192 92.323 289.305 91.2185C288.906 90.7211 288.508 90.2252 288.135 89.7109ZM41.4695 52.5429L41.534 52.5134C42.5647 52.0436 43.4903 51.6218 43.2185 49.9802C45.0691 51.0067 45.8051 52.0575 45.505 53.8593C45.4285 54.3177 45.4 54.7873 45.3713 55.2592C45.3221 56.0679 45.2725 56.8835 44.9805 57.6614C44.7471 58.2847 44.822 59.0808 44.898 59.8896C44.9537 60.4816 45.01 61.0804 44.9466 61.6233C44.8669 62.3068 44.5934 62.9282 44.32 63.5495L44.3199 63.5496C44.198 63.8267 44.076 64.1038 43.9713 64.3864L42.6924 63.8955L43.2559 62.349L42.9468 62.0774L41.4744 63.3117C41.4297 63.2834 41.3797 63.2465 41.3251 63.2039C41.2729 63.1632 41.2166 63.1173 41.1571 63.0687C40.8345 62.8057 40.4153 62.4638 40.029 62.4411C36.8345 62.2575 33.9363 60.5948 31.0732 58.8253C30.5161 58.4812 30.0191 57.9901 29.5201 57.4971C29.1771 57.1581 28.833 56.8181 28.4678 56.5243C28.3438 56.4245 28.2252 56.3293 28.1116 56.2383C26.1954 54.7012 25.7232 54.3224 24.8906 52.1958C24.2534 50.5683 23.5832 48.8288 23.8712 47.051C24.0334 46.3345 23.9657 45.5376 23.6785 44.7841C22.8542 43.1834 23.4229 42.537 24.5101 42.0388C24.8182 41.8924 25.0944 41.6874 25.3284 41.4317C26.8147 39.8235 27.0364 39.7804 28.8886 40.9751C31.1722 42.4474 33.1088 44.4399 35.0418 46.4287C35.4308 46.8289 35.8196 47.2289 36.2111 47.6246C37.3576 48.7823 38.4548 50.0013 39.5377 51.2045L39.5396 51.2066L39.54 51.2071L39.5404 51.2076C40.0177 51.7379 40.4922 52.265 40.967 52.7825C41.1336 52.6972 41.3026 52.619 41.4695 52.5429ZM88.4494 67.436C88.1781 67.4121 87.906 67.3881 87.6328 67.3613C87.9111 68.4826 87.819 69.5674 86.8773 69.3651C85.5316 69.0714 85.8145 69.9217 86.0584 70.6201C86.1059 70.7561 86.1652 70.8935 86.2241 71.03C86.4272 71.5008 86.6261 71.9618 86.3282 72.324C85.8637 72.8883 85.8824 73.6078 85.901 74.318C85.9089 74.6238 85.9168 74.928 85.8861 75.2172C85.8037 75.9955 85.9437 77.1589 86.4148 77.7202C87.2536 78.6455 88.2375 79.3857 89.2962 79.8881C89.9142 80.2037 90.5708 80.3758 91.2293 80.5484L91.2295 80.5485L91.2296 80.5485L91.2297 80.5485L91.2298 80.5486L91.23 80.5486L91.2301 80.5487L91.2302 80.5487L91.2303 80.5487L91.2305 80.5488L91.2306 80.5488L91.2307 80.5488L91.2308 80.5489L91.231 80.5489L91.2311 80.5489C91.6637 80.6623 92.0972 80.7759 92.521 80.9308C93.0594 81.1269 93.5958 81.3443 94.1323 81.5618C95.6545 82.1788 97.1777 82.7962 98.7504 82.93C99.441 82.9885 100.139 83.1391 100.836 83.2898L100.836 83.2898C102.147 83.5728 103.457 83.8558 104.719 83.527C105.919 83.1025 107.279 83.1534 108.593 83.6719C110.053 84.3002 110.607 83.7701 111.22 82.134C111.294 81.9375 111.4 81.7216 111.508 81.5042L111.508 81.5038C111.761 80.9923 112.018 80.4723 111.859 80.1746C111.446 79.4012 111.81 79.1887 112.172 78.977C112.505 78.7822 112.837 78.588 112.562 77.9581C109.959 75.6957 106.887 74.2245 103.832 72.7612C103.482 72.5937 103.133 72.4264 102.784 72.258C100.614 71.2095 98.388 70.3748 96.1616 69.54L96.1607 69.5397C95.0767 69.1332 93.9926 68.7267 92.9149 68.2954C91.4201 67.6977 89.9469 67.5679 88.4494 67.436ZM3.53337 135.549C6.86539 135.407 9.34927 137.191 11.7788 138.935L11.872 139.002C14.0452 140.549 16.1417 142.247 18.1457 144.086C18.5788 144.487 19.0346 144.868 19.4932 145.252C21.1388 146.627 22.8189 148.032 23.6048 150.495C22.3185 150.239 21.3299 149.354 20.3053 148.436C19.3724 147.6 18.4096 146.738 17.1651 146.3C18.2335 147.829 19.4822 148.984 20.7798 150.185C21.7759 151.107 22.8009 152.055 23.7953 153.22L21.71 153.049L22.0337 153.903L22.3334 154.693L20.4177 156.426C20.3452 156.377 20.2679 156.324 20.1866 156.268C20.1229 156.224 20.0568 156.178 19.9884 156.131L19.9877 156.13C19.6034 155.864 19.1503 155.549 18.6838 155.274C16.148 153.777 16.1256 153.779 13.2436 154.065L13.1721 154.072C12.8342 154.091 12.4892 154.067 12.1432 154.003C9.51032 153.609 6.94163 152.943 4.55373 151.039C3.46255 150.196 2.49597 149.15 1.708 147.959C1.53252 147.714 1.29785 147.529 1.04062 147.43C0.803984 147.356 0.5995 147.154 0.502495 146.898C0.405489 146.642 0.430277 146.37 0.567774 146.183C0.922383 145.467 0.97922 144.64 1.03598 143.815C1.08187 143.148 1.12769 142.481 1.33078 141.875C1.47085 141.326 1.37627 140.696 1.07144 140.146C0.719737 139.284 1.43679 137.517 2.13536 137.349C2.27967 137.315 2.45494 137.37 2.63058 137.426C2.98106 137.537 3.33291 137.648 3.44274 137.048C3.50283 136.556 3.5331 136.056 3.53337 135.549ZM116.348 158.525L115.094 159.596C115.139 160.377 115.601 160.917 116.067 161.46C116.488 161.951 116.911 162.445 117.029 163.122C117.167 163.446 117.475 163.658 117.772 163.633C118.07 163.609 118.277 163.354 118.274 163.019C118.295 162.901 118.55 162.874 118.804 162.847C118.921 162.835 119.038 162.823 119.132 162.801C119.147 162.856 119.166 162.918 119.188 162.983C119.202 163.026 119.217 163.071 119.232 163.116L119.233 163.116C119.314 163.356 119.395 163.596 119.349 163.624C118.152 164.369 119.213 165.414 119.677 165.853C120.063 166.219 120.446 166.592 120.829 166.966L120.83 166.967L120.831 166.967L120.831 166.968L120.832 166.969L120.833 166.969L120.834 166.97L120.834 166.971L120.835 166.971L120.836 166.972L120.836 166.973C122.41 168.508 123.992 170.051 125.837 171.11L125.862 171.124C126.82 171.674 128.041 172.374 128.513 170.703C128.54 170.619 128.742 170.57 128.865 170.589C130.211 170.808 130.542 170.05 130.306 168.709C130.099 167.538 130.713 167.783 131.193 167.975L131.196 167.977C131.223 167.987 131.25 167.998 131.276 168.008L131.864 166.072L130.001 163.954C130.347 163.99 130.654 164.168 130.955 164.344C131.469 164.643 131.965 164.932 132.605 164.476C132.598 164.354 132.589 164.224 132.581 164.089C132.556 163.709 132.529 163.286 132.507 162.862C132.497 162.659 132.461 162.424 132.426 162.189L132.426 162.189C132.347 161.669 132.269 161.148 132.464 160.96C133.273 160.183 132.707 159.686 132.196 159.237L132.153 159.199L132.109 159.16C132.072 159.127 132.037 159.095 132.002 159.063C131.295 158.402 130.564 157.774 129.833 157.146L129.833 157.146L129.833 157.146L129.833 157.146L129.833 157.146L129.833 157.146L129.832 157.145L129.832 157.145L129.832 157.145L129.832 157.145L129.832 157.145L129.832 157.145L129.832 157.145L129.831 157.144C129.317 156.702 128.803 156.261 128.297 155.807C128.014 155.508 127.754 155.182 127.522 154.835L127.815 154.479C129.563 155.968 131.31 157.457 133.273 159.129C132.649 157.217 131.578 156.282 130.401 155.274C128.537 153.686 126.534 152.34 124.442 151.271C121.794 149.908 119.065 149.073 116.795 151.104C116.597 151.249 116.383 151.371 116.157 151.468L115.057 157.547L116.348 158.525ZM156.994 215.152L155.387 214.517L155.759 215.366C155.975 215.858 156.177 216.32 156.391 216.808C156.148 217.037 155.906 217.274 155.662 217.512C155.084 218.077 154.496 218.652 153.864 219.169C153.315 219.617 152.693 219.959 152.021 220.185C151.808 220.256 151.645 220.078 151.461 219.876C151.208 219.597 150.914 219.274 150.389 219.497C149.905 219.703 149.093 219.115 148.353 218.579C148.2 218.468 148.05 218.359 147.906 218.26C147.687 218.108 147.508 217.834 147.326 217.556C146.943 216.969 146.55 216.368 145.76 216.883C145.208 215.99 144.656 215.097 144.104 214.204C144.067 214.144 144.024 214.088 143.981 214.032C143.963 214.007 143.944 213.982 143.925 213.956L138.151 211.677C137.792 211.919 137.411 212.124 137.012 212.293C136.376 212.5 135.371 212.151 135.426 211.556C135.491 210.848 135.078 210.517 134.685 210.203C134.345 209.93 134.02 209.669 134.036 209.186C135.462 207.535 135.986 207.149 137.615 206.649C136.715 205.89 135.931 205.229 134.946 204.398C134.97 204.279 134.981 204.121 134.993 203.955L134.993 203.955L134.993 203.954L134.993 203.954C135.022 203.56 135.054 203.113 135.268 202.997C135.675 202.775 136.072 202.523 136.469 202.271L136.469 202.271L136.469 202.271L136.469 202.271L136.469 202.271L136.469 202.271L136.469 202.271L136.469 202.271L136.47 202.271L136.47 202.271L136.47 202.27L136.47 202.27C137.941 201.336 139.421 200.396 141.482 200.95C142.195 201.059 142.908 201.253 143.608 201.529C144.9 202.207 146.165 202.981 147.428 203.754L147.428 203.755L147.428 203.755L147.429 203.755L147.429 203.755L147.807 203.987L148.072 204.148C148.493 204.405 148.905 204.688 149.317 204.97L149.317 204.97L149.317 204.97L149.317 204.97L149.318 204.97L149.318 204.97L149.318 204.971L149.318 204.971L149.318 204.971L149.318 204.971L149.319 204.971L149.319 204.972C149.619 205.177 149.919 205.383 150.223 205.579C150.646 205.852 151.003 206.246 151.36 206.64L151.36 206.64C151.948 207.287 152.535 207.934 153.412 208.044C153.826 209.06 154.566 209.662 155.323 210.278C155.556 210.467 155.789 210.657 156.016 210.861C156.657 211.369 157.125 212.116 157.31 212.926C157.494 213.737 157.38 214.542 156.994 215.152ZM249.574 218.414L251.711 217.225C253.211 216.634 254.509 215.64 255.503 214.32C255.931 213.759 256.19 213.058 256.451 212.353C256.715 211.635 256.982 210.913 257.431 210.325C257.533 210.192 257.42 209.724 257.278 209.5C256.842 208.805 256.367 208.138 255.855 207.503C254.894 206.325 253.691 205.641 252.484 204.955C252.122 204.749 251.759 204.543 251.402 204.323C248.357 202.447 245.392 201.419 242.508 203.114C242.302 203.257 242.043 203.301 241.779 203.239C240.812 202.819 240.545 203.403 240.279 203.985C240.134 204.303 239.989 204.62 239.73 204.772C239.775 206.315 239.121 207.484 238.483 208.624C238.257 209.029 238.032 209.429 237.842 209.842C237.195 211.245 237.352 212.256 238.233 213.294C238.408 213.501 238.583 213.711 238.757 213.921C240.125 215.568 241.52 217.249 243.624 217.641C243.906 217.695 244.189 217.834 244.473 217.973C245.067 218.265 245.664 218.558 246.26 218.07C246.473 217.976 246.733 218.021 246.949 218.189C247.854 219.412 248.596 218.981 249.343 218.547C249.42 218.502 249.497 218.457 249.574 218.414ZM179.231 78.2703C178.531 77.8092 178.016 77.4701 177.016 76.8119C177.185 77.2139 177.311 77.5141 177.41 77.7516L177.41 77.753L177.411 77.7542C177.569 78.1322 177.66 78.351 177.756 78.5686L177.758 78.5727C178.014 79.1494 178.143 79.4418 178.08 79.6842C178.016 79.9335 177.747 80.1299 177.202 80.5283L177.199 80.5305C177.164 80.5556 177.123 80.581 177.081 80.6069C176.959 80.6825 176.828 80.763 176.831 80.8587C176.911 82.033 176.224 82.9629 175.197 83.072C174.062 83.3222 172.856 83.3094 171.647 83.0342C167.139 81.6837 163.254 78.6724 159.611 75.2106C159.186 74.8065 158.905 74.2037 158.626 73.6046C158.498 73.3291 158.37 73.0545 158.228 72.8003L159.178 72.4277C158.557 71.448 158.328 70.5944 159.164 69.814C159.433 69.4612 159.502 68.9525 159.348 68.4551C159.003 67.698 159.343 67.3991 159.677 67.106C159.904 66.9061 160.128 66.7089 160.131 66.3711C160.766 66.7939 161.13 66.4516 161.497 66.1069C161.816 65.8065 162.137 65.5044 162.642 65.7059C163.006 65.8518 163.387 65.961 163.766 66.0698C164.469 66.2716 165.168 66.4722 165.754 66.9043C167.776 68.325 169.689 69.961 171.459 71.7839C172.173 72.6491 173.128 73.2117 174.106 73.3435C175.625 73.4622 177.153 74.1122 178.47 75.2004L178.515 75.2381C179.603 76.1583 179.611 76.165 179.231 78.2703ZM154.667 136.269C154.522 135.908 154.338 135.561 154.118 135.238C153.264 134.731 152.415 134.34 151.582 133.957C151.186 133.775 150.794 133.594 150.407 133.404C148.011 132.216 145.549 131.001 142.906 131.134C141.142 131.223 139.971 132.14 139.901 133.721C139.881 134.174 139.719 134.585 139.558 134.994C139.27 135.726 138.984 136.451 139.517 137.401C138.373 138.325 139.299 139.481 139.944 140.18C141.748 142.135 143.622 144.084 145.958 145.152C146.388 145.349 146.839 145.455 147.29 145.561C147.707 145.659 148.124 145.757 148.526 145.927C149.191 146.208 149.838 146.571 150.537 146.964C150.854 147.142 151.182 147.326 151.527 147.51L154.483 144.816C154.381 144.556 154.286 144.314 154.19 144.07L154.189 144.066L154.184 144.055L154.171 144.022C154.028 143.656 153.882 143.283 153.705 142.835L157.701 143.961C157.764 143.657 157.802 143.326 157.837 143.015C157.908 142.38 157.971 141.824 158.229 141.732C158.647 141.58 158.892 141.273 159.137 140.965C159.378 140.663 159.619 140.36 160.023 140.206C159.638 139.991 159.277 140.117 158.929 140.238C158.389 140.425 157.881 140.602 157.365 139.486L158.761 139.451C158.383 137.915 157.373 137.795 156.323 137.671L156.272 137.665L156.162 137.651C156.112 137.645 156.063 137.639 156.013 137.632C156.337 137.985 156.66 138.338 157.036 138.749L157.282 139.018C157.017 139.12 156.732 139.167 156.436 139.158C156.077 139.07 155.729 138.884 155.425 138.617C155.347 138.541 155.339 138.384 155.331 138.218C155.323 138.066 155.315 137.906 155.252 137.793C155.18 137.666 155.054 137.566 154.93 137.467L154.93 137.467C154.793 137.358 154.659 137.252 154.604 137.115C154.554 136.992 154.593 136.842 154.632 136.69C154.669 136.543 154.707 136.396 154.667 136.269ZM95.6041 119.872L94.1922 120.033C94.8604 121.342 95.8639 121.81 96.8813 122.285C97.7459 122.689 98.6206 123.097 99.3081 124.03C98.8899 124.084 98.4596 124.083 98.0252 124.029C97.358 123.811 96.6958 123.556 96.0411 123.266C96.5632 124.095 97.3067 124.739 98.1386 125.082L98.1386 125.082L98.1386 125.082C98.0113 126.525 97.9583 127.126 97.651 127.536C97.4319 127.829 97.0834 128.024 96.4866 128.359C96.0636 128.163 95.6337 127.93 95.2 127.694C94.204 127.153 93.1879 126.602 92.1901 126.469C91.2278 126.341 90.436 125.832 89.6498 125.327C89.1442 125.002 88.6408 124.679 88.0959 124.459C86.7503 123.813 85.4665 122.96 84.2873 121.928C83.5781 121.421 82.9861 120.714 82.5851 119.898C82.1989 118.925 81.7737 117.414 82.1561 116.863C82.5954 116.231 82.432 115.729 82.2644 115.214C82.1916 114.991 82.118 114.765 82.0926 114.525C81.9779 113.44 82.0142 112.303 82.8468 111.593C83.0232 111.443 83.184 111.232 83.3424 111.024C83.6203 110.66 83.8908 110.306 84.2245 110.304C85.5112 110.245 86.8383 110.467 88.1333 110.958C90.4822 112.005 92.7926 113.21 95.0503 114.565C95.4269 114.786 95.7074 115.275 96.0376 115.851L96.0377 115.851C96.2055 116.144 96.3861 116.458 96.5985 116.772L95.2514 116.401C95.8982 117.294 95.7802 118.065 95.6688 118.794C95.6127 119.16 95.5582 119.516 95.6041 119.872ZM51.8599 9.73452L50.1659 9.59612C50.8222 10.474 51.5247 11.311 52.2686 12.1012C52.5979 12.4069 53.3214 12.6921 53.5378 12.5223C54.0128 12.1497 54.5241 12.3263 55.0006 12.4908C55.3085 12.5971 55.6019 12.6983 55.8615 12.6432C56.5169 12.5002 57.0682 12.7436 57.6161 12.9855C57.8303 13.08 58.0441 13.1744 58.2633 13.2453C58.7073 13.3892 59.1551 13.5998 59.6004 13.8093L59.6007 13.8094C60.3556 14.1645 61.1034 14.5162 61.8137 14.5344C62.5214 14.5523 63.1617 14.799 63.794 15.0427L63.7943 15.0429C64.2029 15.2003 64.6082 15.3565 65.0262 15.4489C65.7641 15.6118 66.5024 15.76 67.2389 15.9078C67.5654 15.9733 67.8915 16.0388 68.2171 16.1054L70.7237 14.7103C69.9057 13.8251 70.3446 13.5796 70.7873 13.332C71.1334 13.1384 71.4818 12.9435 71.2335 12.4406C71.0452 12.0392 70.6678 11.9163 70.2867 11.7923C69.7561 11.6196 69.2183 11.4446 69.1738 10.5121C69.369 10.5724 69.5677 10.6517 69.7649 10.7304C70.5459 11.0423 71.3025 11.3445 71.7221 10.4087C70.7509 8.81395 69.3335 8.29608 67.9151 7.77783L67.7111 7.70316C67.4336 7.61936 67.1591 7.50919 66.8911 7.37402C64.011 5.68635 61.0564 4.22087 58.0518 2.98972C57.7006 2.84804 57.3671 2.61775 57.0331 2.38717C56.7234 2.1733 56.4133 1.9592 56.0884 1.81529L55.9538 1.75556C54.7582 1.22448 53.5213 0.675084 52.4442 1.53989C52.7173 2.17592 53.2222 2.49661 53.7175 2.81111C54.315 3.19058 54.8984 3.56105 55.0433 4.46549L51.1096 2.91213L50.3654 4.4637L53.1619 6.9337C51.1673 6.96257 51.1069 7.15238 51.8599 9.73452ZM171.123 189.491C170.838 189.62 170.619 189.8 170.411 189.972C170.01 190.301 169.649 190.597 168.936 190.442L169.649 189.533C169.404 189.267 169.157 189.003 168.91 188.739L168.909 188.738C168.246 188.029 167.582 187.32 166.955 186.577C166.734 186.314 166.538 185.664 166.658 185.484C167.047 184.901 167.071 184.188 167.096 183.483C167.113 182.984 167.13 182.488 167.276 182.045C167.492 181.567 167.825 181.179 168.243 180.917C168.34 180.845 168.505 180.871 168.669 180.897C168.833 180.924 168.996 180.95 169.092 180.879C169.309 180.619 169.474 180.309 169.578 179.964L169.675 180.071C170.929 181.458 170.994 181.53 172.872 181.315C173.588 181.233 174.175 181.593 174.77 181.958L174.77 181.958C175.133 182.181 175.499 182.405 175.899 182.533L175.812 181.912C175.775 181.651 175.738 181.386 175.698 181.103C175.827 181.158 175.971 181.201 176.113 181.242L176.113 181.242C176.408 181.329 176.689 181.412 176.789 181.594C178.648 184.963 178.693 185.038 181.073 186.351C180.993 185.198 180.291 184.695 179.548 184.162C179.056 183.809 178.546 183.444 178.187 182.867C178.308 182.827 178.44 182.765 178.569 182.705L178.569 182.705C178.836 182.58 179.087 182.462 179.192 182.559C179.424 182.769 179.661 182.974 179.899 183.178C181.264 184.356 182.618 185.523 182.829 187.752C182.833 187.792 182.837 187.831 182.841 187.868C182.847 187.928 182.853 187.985 182.859 188.04C182.928 188.659 182.965 188.983 182.408 189.308C182.016 189.606 181.718 190.027 181.544 190.529C181.174 191.39 180.838 192.274 180.486 193.198C180.341 193.58 180.193 193.97 180.038 194.367L179.272 193.884C178.791 193.789 178.545 194.129 178.334 194.42C178.045 194.819 177.823 195.127 177.155 194.103C177.028 193.909 176.911 194.055 176.771 194.228C176.548 194.506 176.267 194.855 175.798 194.012C175.594 193.645 175.005 193.491 174.439 193.342L174.439 193.342L174.439 193.342L174.439 193.342L174.439 193.342C174.188 193.277 173.942 193.212 173.735 193.131C173.674 192.835 173.615 192.546 173.557 192.261C173.51 192.033 173.464 191.807 173.417 191.581L173.288 191.555L173.181 191.534L173.07 191.512L172.915 191.482C172.973 192.06 173.031 192.639 173.105 193.367C172.213 192.74 171.698 192.378 171.02 191.902C171.051 191.159 171.087 190.324 171.123 189.491ZM204.651 63.2901L202.007 61.8928C201.859 62.2662 201.754 62.6645 201.692 63.08C201.742 63.4603 201.812 63.8406 201.901 64.2192L201.91 64.2791C201.959 64.6318 202.038 65.1932 201.96 65.211C201.34 65.3501 201.193 65.944 201.046 66.5364C200.888 67.1714 200.731 67.8046 199.993 67.8739C200.032 68.1355 200.083 68.397 200.147 68.6571C200.753 68.6646 200.892 69.1176 201.03 69.5657C201.102 69.8012 201.174 70.0354 201.313 70.2028C201.911 70.9239 202.622 71.3699 203.324 71.8109C203.821 72.1227 204.313 72.432 204.759 72.8341C206.681 74.5853 208.871 75.8833 211.159 76.6275L215.44 73.1834L213.91 70.4358C214.359 70.3915 214.804 70.5988 215.235 70.7999C215.854 71.0885 216.445 71.3641 216.981 70.8643C216.395 69.1581 215.519 67.6825 214.152 66.8799C213.021 66.2158 211.931 65.4612 210.843 64.7074L210.843 64.7074C209.793 63.9804 208.745 63.2543 207.661 62.6109C206.643 61.941 205.525 61.557 204.424 61.4982L204.651 63.2901ZM131.744 56.2956L129.391 54.2231L129.728 55.8347C129.681 55.8283 129.628 55.8282 129.576 55.828C129.466 55.8276 129.357 55.8272 129.304 55.7675C128.574 54.928 127.69 54.2789 126.737 53.8836C126.145 53.5997 125.577 53.2319 125.05 52.7906C124.155 52.0226 123.045 51.7419 122.09 52.0421L122.116 52.2491C122.163 52.6281 122.208 52.9884 122.231 53.1707L120.317 52.7195C120.24 52.5808 120.175 52.4759 120.126 52.3967L120.126 52.3965C120.051 52.2753 120.014 52.2146 120.026 52.186C120.211 51.7399 120.408 51.3022 120.595 50.8868L120.596 50.8855L120.598 50.8807C120.647 50.7717 120.696 50.6643 120.743 50.5586L119.96 49.5358L118.975 48.2488L121.129 48.3086C121.018 47.3966 120.907 46.4813 120.786 45.4964L121.82 44.7173L121.122 43.4633C121.693 41.754 122.725 41.3671 124.356 41.9268C125.031 42.158 125.71 42.3509 126.398 42.5465L126.399 42.5465L126.399 42.5465L126.399 42.5467L126.399 42.5467L126.399 42.5467L126.399 42.5468C127.526 42.8668 128.679 43.194 129.875 43.708L129.09 45.6489C130.003 46.6542 131.067 47.4666 132.213 48.0325C133.06 48.4698 133.84 49.1315 134.607 49.782C134.94 50.0645 135.271 50.3448 135.603 50.6038C135.516 51.7084 134.9 51.6539 134.25 51.5964C134.079 51.5812 133.905 51.5658 133.737 51.5717C133.78 51.6682 133.815 51.7712 133.849 51.8721C133.922 52.0845 133.991 52.2872 134.118 52.3978C135.291 53.4132 135.44 54.1529 134.487 54.7561C133.867 55.1476 133.22 55.496 132.583 55.8392L132.583 55.8393L132.582 55.8393L132.582 55.8397C132.3 55.9916 132.02 56.1425 131.744 56.2956ZM189.205 7.09863L191.41 8.47086C191.437 8.40175 191.465 8.33424 191.492 8.26766L191.492 8.26745L191.492 8.26724C191.729 7.69498 191.937 7.1914 191.543 6.3295C190.647 4.36746 189.155 3.1222 187.668 1.88117C187.285 1.5618 186.902 1.24269 186.531 0.911725C185.785 0.247787 184.476 0.623707 183.693 1.38083C183.373 1.67355 183.012 1.9128 182.621 2.09281C181.618 2.49954 181.22 3.77877 181.721 4.99222C182.023 5.87438 182.161 6.50039 181.606 7.12128C181.076 7.62304 181.078 8.57542 181.612 9.27072C181.659 9.34565 181.708 9.42054 181.757 9.49569C182.157 10.1082 182.568 10.7385 182.323 11.5551C182.363 11.9694 182.589 12.3684 182.923 12.6152C183.092 12.7165 183.328 12.7042 183.548 12.6928C183.781 12.6807 183.997 12.6695 184.101 12.7933C184.232 12.9481 184.243 13.2066 184.256 13.4748C184.267 13.721 184.279 13.9755 184.383 14.1655C185.108 15.4942 186.302 15.7384 187.373 15.6631C187.66 15.6435 187.916 15.5105 188.179 15.3742C188.575 15.1685 188.986 14.9555 189.537 15.1136C189.588 15.128 189.659 14.807 189.743 14.4287L189.743 14.4286C189.809 14.1273 189.884 13.7898 189.963 13.5567C190.093 13.3132 190.255 13.0955 190.445 12.9091L189.161 10.6032C189.571 10.9394 189.859 11.1751 190.084 11.3598L190.466 11.6737L191.812 10.9245C191.581 10.6454 191.356 10.3764 191.137 10.1141L191.137 10.114C190.546 9.40638 189.996 8.74715 189.467 8.06784C189.37 7.94319 189.337 7.7605 189.294 7.52503C189.271 7.39799 189.245 7.25558 189.205 7.09863ZM145.441 100.556L143.145 100.938C143.338 102.022 143.731 102.946 144.844 103.391C144.66 104.192 144.131 104.147 143.581 104.101C143.203 104.069 142.816 104.036 142.526 104.277L143.136 105.915C143.05 106.497 142.654 106.486 142.235 106.476C141.822 106.465 141.388 106.454 141.211 107.014C140.989 107.708 140.515 107.456 140.008 107.186C139.674 107.008 139.325 106.823 139.026 106.896C138.521 106.924 137.995 106.778 137.517 106.477C136.85 106.135 136.26 105.628 135.666 105.118C134.842 104.409 134.011 103.696 132.964 103.415C132.676 103.338 132.416 102.861 132.119 102.316L132.119 102.316C131.971 102.044 131.813 101.755 131.639 101.49C132.526 101.518 132.612 100.86 132.698 100.198C132.78 99.5701 132.862 98.9388 133.632 98.8896C133.62 98.5967 133.51 98.2855 133.397 97.9677C133.136 97.2306 132.862 96.4582 133.78 95.7965L135.317 96.8816C135.205 96.0568 135.148 95.6334 135.093 95.2216L135.083 95.1474C135.715 94.5116 136.492 95.0549 137.041 95.4387L137.117 95.4915C138.901 96.7423 140.87 97.515 142.838 97.7368C144.084 97.8886 145.155 98.6701 145.441 100.556ZM199.809 164.824L198.434 169.266C198.644 169.519 198.856 169.813 199.075 170.118C199.587 170.831 200.141 171.603 200.83 172.044C202.575 173.205 204.429 174.084 206.324 174.651C208.51 175.245 210.817 175.453 211.466 172.438C211.507 172.244 211.668 172.103 211.849 171.943C211.944 171.86 212.044 171.771 212.135 171.668C211.954 171.439 211.792 171.196 211.638 170.964C211.322 170.492 211.039 170.067 210.689 169.9C210.454 169.787 210.218 169.678 209.982 169.57C208.576 168.926 207.191 168.291 206.206 166.755C205.125 166.455 204.241 165.709 203.365 164.97C202.839 164.526 202.315 164.084 201.753 163.742L199.809 164.824Z" fill="#9EAD8D"/>
</svg>
