<svg width="154" height="134" viewBox="0 0 154 134" fill="none" xmlns="http://www.w3.org/2000/svg">
<path fill-rule="evenodd" clip-rule="evenodd" d="M2.38174 1.16375L2.38171 1.16379L2.38171 1.1638L2.3816 1.16395C2.31052 1.26313 2.2364 1.36654 2.15709 1.47531C1.18786 1.02364 0.929175 1.045 0.453379 1.78615L0.422737 1.83376C0.19292 2.19043 -0.0512362 2.56936 0.0200484 3.07375C0.0548025 3.31838 0.0448012 3.56901 0.0347863 3.81998C0.025239 4.05924 0.0156794 4.2988 0.04487 4.53377C0.165987 5.50271 0.407025 6.43463 1.16423 7.13906C1.40761 7.36523 1.6398 7.60349 1.88031 7.8503L1.88032 7.85031C1.99149 7.96439 2.10444 8.08029 2.22109 8.19767H2.62063C2.66882 8.19767 2.71705 8.1972 2.76529 8.19674H2.76532H2.76535H2.76539H2.76542H2.76545H2.76549H2.76552H2.76555H2.76558H2.76562H2.76565H2.76568H2.76572H2.76575H2.76578H2.76582H2.76585H2.76588H2.76591H2.76595H2.76598H2.76601H2.76605H2.76609H2.76613H2.76618H2.76622H2.76626H2.7663H2.76634H2.76638H2.76642H2.76646H2.7665H2.76654H2.76658H2.76662H2.76666H2.76671H2.76675H2.76679H2.76683H2.76687H2.76691C2.8636 8.1958 2.96034 8.19486 3.05695 8.19767C3.81194 8.21947 3.81269 8.22171 4.11341 9.12282L4.12039 9.14374C4.14847 9.22815 4.20023 9.31185 4.25102 9.39399C4.32787 9.51826 4.4025 9.63894 4.38954 9.75308C4.31208 10.4298 4.70235 10.772 5.18083 11.0936L5.42339 10.2985L5.69311 9.41426L5.90724 9.45699V11.0819C6.91327 11.3122 7.01214 10.6474 7.10437 10.0271C7.1101 9.98858 7.1158 9.95023 7.1217 9.91227C7.72699 10.1858 8.19501 10.2309 8.48718 9.63392C8.72222 9.15378 8.9226 9.36018 9.12691 9.57063L9.12693 9.57066L9.12696 9.57069C9.15503 9.5996 9.18317 9.62859 9.21149 9.65589C9.80176 8.75737 10.0674 7.6821 9.96391 6.61006C9.91653 5.77538 9.92636 4.93768 9.9362 4.09982V4.09974V4.09967V4.09959V4.09952L9.9362 4.09944L9.9362 4.09936L9.9362 4.09929V4.09921L9.9362 4.09914L9.9362 4.09906V4.09899V4.09891V4.09883V4.09876V4.09868V4.09861V4.09853V4.09845L9.9362 4.09838L9.9362 4.0983V4.09823L9.9362 4.09815C9.94126 3.66733 9.94632 3.23646 9.94358 2.80594C9.93047 2.55493 9.90471 2.30475 9.86642 2.05637L9.71689 2.06299L9.57604 3.47306C9.4128 3.11332 9.339 2.71902 9.36102 2.32418C9.35313 1.94676 9.31633 1.5705 9.25097 1.19877C9.15618 0.862189 9.03837 0.532607 8.89838 0.212382L8.66482 0.889734C8.1679 -0.0166356 8.1666 -0.0163183 7.2468 0.207602L7.23953 0.209373C7.11362 0.239765 6.91176 0.284902 6.85733 0.22472C6.56067 -0.109292 6.35761 -0.034666 6.01699 0.212081C5.93733 0.269697 5.78488 0.2039 5.61694 0.131416C5.4621 0.0645881 5.29409 -0.00792476 5.15781 0.00535521C4.80203 0.0590839 4.46241 0.19111 4.16315 0.392027C3.96371 0.515689 3.80174 0.427309 3.64398 0.341226C3.49848 0.26183 3.35656 0.184388 3.19212 0.277078C3.06719 0.337387 2.95437 0.420315 2.85927 0.521719C2.69831 0.722064 2.54836 0.931276 2.38174 1.16375ZM29.9074 14.5871C29.7387 14.6405 29.5177 14.5292 29.084 14.3107C28.9997 14.4345 28.8878 14.5344 28.7748 14.6353C28.5339 14.8504 28.2882 15.0697 28.296 15.533C28.2965 16.1419 28.5247 16.7282 28.935 17.1757C28.9807 17.2278 29.0258 17.2843 29.0713 17.3413C29.2172 17.5242 29.3677 17.7128 29.5562 17.7802C30.1086 17.978 30.4701 18.3844 30.8307 18.7897C31.006 18.9868 31.181 19.1835 31.3777 19.3561C32.0745 19.9681 32.3117 20.8567 32.3736 21.7086C32.5241 23.7767 33.6107 25.3962 34.6964 27.0145L34.7843 27.1455C35.1362 27.669 35.7322 27.7627 36.3372 27.8579C36.4405 27.8741 36.5441 27.8904 36.6468 27.9089L36.6971 27.9179C37.811 28.1184 38.0727 28.1655 38.4973 27.354L38.5437 27.2648C38.8084 26.7537 38.9808 26.4208 39.5868 26.9559C39.6318 26.9968 39.8295 26.8779 39.9826 26.7859L40.0054 26.7722C40.0241 26.761 40.0419 26.7504 40.0584 26.7407C40.1206 26.7042 40.1947 26.642 40.2627 26.5851L40.2627 26.5851C40.3542 26.5084 40.4344 26.4412 40.4591 26.4585C41.0551 26.8878 41.101 26.3229 41.1239 26.0401L41.1251 26.0258C41.1329 25.9301 41.1416 25.8337 41.1503 25.7367L41.1503 25.7366V25.7366V25.7366L41.1503 25.7363C41.2077 25.0964 41.2672 24.434 41.1057 23.8436C41.0487 23.636 41.0117 23.4181 40.9745 23.1989L40.9745 23.1989L40.9745 23.1988L40.9745 23.1987L40.9745 23.1987L40.9744 23.1986L40.9744 23.1986L40.9744 23.1985L40.9744 23.1984L40.9744 23.1984L40.9744 23.1983L40.9744 23.1982L40.9744 23.1982L40.9743 23.1981L40.9743 23.198L40.9743 23.198L40.9743 23.1979L40.9743 23.1979L40.9743 23.1978L40.9743 23.1977L40.9743 23.1977L40.9743 23.1976L40.9742 23.1975L40.9742 23.1975L40.9742 23.1974C40.8808 22.6476 40.7862 22.0907 40.3751 21.6731C40.0821 21.4231 39.9293 21.0447 39.9657 20.6599C39.9482 20.4791 39.8795 20.3071 39.7677 20.1643C39.7052 20.062 39.6431 19.9594 39.581 19.8567C39.3118 19.4114 39.0424 18.9658 38.7372 18.5469C38.532 18.2657 38.3075 17.9988 38.0831 17.732C37.8536 17.4592 37.6242 17.1865 37.4156 16.8985C37.1208 16.4919 36.7906 16.1115 36.4647 15.7361L36.4646 15.736L36.4641 15.7353C36.3995 15.6609 36.3351 15.5867 36.2711 15.5125C36.1978 15.4274 36.1252 15.3401 36.0522 15.2525L36.0522 15.2524C35.5593 14.6601 35.0508 14.049 34.1727 13.9276C33.5495 13.8107 32.9331 13.66 32.326 13.4763C31.9931 13.8162 31.5921 13.7935 31.1927 13.771C30.9362 13.7566 30.6804 13.7421 30.4438 13.8238C30.2014 14.2986 30.0825 14.5316 29.9074 14.5871ZM137.653 110.211C137.853 108.935 138.32 107.798 139.314 107.016C139.286 106.792 139.258 106.588 139.232 106.396L139.232 106.395L139.231 106.394L139.231 106.393C139.178 106.012 139.133 105.681 139.117 105.351C139.087 104.698 138.909 104.035 138.285 103.873C137.54 103.679 137.096 103.389 137.062 102.591C137.046 102.499 136.989 102.42 136.908 102.376C136.184 102.059 135.683 101.492 135.182 100.926L135.182 100.925C134.92 100.63 134.659 100.335 134.366 100.075L134.251 99.9721C133.597 99.3881 133.562 99.3568 132.392 99.4398C132.157 99.4565 131.924 99.4912 131.655 99.5311L131.496 99.5546C131.41 99.5671 131.321 99.5799 131.226 99.5926C130.712 98.9974 130.236 98.3701 129.8 97.7143C129.688 97.5273 129.541 97.3595 129.393 97.1913C129.083 96.8375 128.771 96.4823 128.787 95.9438C128.347 95.8851 128.097 95.5737 127.87 95.2912C127.723 95.1073 127.585 94.9356 127.411 94.8539L125.932 95.1497L125.932 95.9621C125.76 95.8135 125.66 95.7265 125.615 95.6871L125.065 96.0482C126.075 98.2352 127.289 100.321 128.691 102.277C128.921 102.567 128.957 102.967 128.782 103.293C128.571 102.982 128.361 102.681 128.155 102.387C127.7 101.738 127.264 101.116 126.884 100.461C126.396 99.6227 125.955 98.7568 125.513 97.8894L125.513 97.889L125.513 97.8884L125.512 97.8877L125.512 97.887L125.512 97.8864C125.321 97.5126 125.131 97.1385 124.936 96.7662C124.152 97.3243 124.153 97.3268 124.456 98.0249L124.47 98.0562C125.351 100.09 126.514 101.968 127.673 103.841L127.673 103.842C127.849 104.127 128.026 104.412 128.201 104.698C129.501 106.815 130.891 108.89 132.786 110.569C133.156 110.897 133.567 111.122 133.977 111.348L133.977 111.348C134.164 111.451 134.35 111.553 134.532 111.665C134.778 111.774 135.062 111.75 135.287 111.602C135.555 111.326 135.854 111.262 136.174 111.193L136.236 111.18C136.298 111.166 136.36 111.152 136.424 111.136C136.464 111.125 136.504 111.115 136.546 111.105C137.007 110.991 137.552 110.857 137.653 110.211ZM123.568 69.8611C123.337 69.6287 123.118 69.3978 122.904 69.172C122.448 68.6922 122.015 68.2352 121.534 67.8344C119.895 66.4657 118.952 64.6373 118.01 62.8094C117.788 62.3792 117.567 61.949 117.336 61.5249C116.878 60.6818 116.916 59.752 116.953 58.8328L116.953 58.8316C116.96 58.6603 116.967 58.4895 116.971 58.3196C116.974 58.1922 117.094 58.0674 117.217 57.9385C117.276 57.8777 117.335 57.816 117.383 57.7527L117.398 57.7822C117.599 58.1816 117.789 58.5602 118.064 59.1068V57.1042C118.197 57.038 118.33 56.9812 118.458 56.9263C118.738 56.8064 118.996 56.6956 119.192 56.5162C119.494 56.2649 119.906 56.1967 120.272 56.3381C120.534 56.4043 120.769 56.5769 121.015 56.7576C121.125 56.8379 121.237 56.9198 121.354 56.9947C121.131 58.0458 121.542 58.9259 122.051 59.8428C122.215 59.7982 122.389 59.8116 122.567 59.8253C122.883 59.8496 123.209 59.8748 123.502 59.572C123.67 59.4721 123.877 59.4628 124.053 59.5473C124.318 59.7076 124.597 59.8501 124.876 59.9927C125.776 60.4523 126.678 60.9128 127.109 61.9736L127.137 62.045L127.138 62.0457C127.232 62.2826 127.343 62.5582 127.527 62.659C127.657 62.7296 127.683 62.8629 127.708 62.9952C127.744 63.1782 127.78 63.3596 128.087 63.3713C128.377 63.3825 128.35 63.5843 128.323 63.7895C128.31 63.8924 128.296 63.9961 128.322 64.0772C128.437 64.3717 128.531 64.6741 128.604 64.9821C128.631 65.2729 128.634 65.5655 128.614 65.8568C127.541 66.8326 126.72 68.0571 126.223 69.4241L123.568 69.8611ZM86.7589 13.3661L86.7568 13.3676C86.2793 13.6965 85.8094 14.0204 85.3242 14.3185C85.2851 14.3427 85.1787 14.2568 85.0444 14.1485L85.0442 14.1484L85.044 14.1482C84.9728 14.0908 84.8938 14.027 84.8128 13.9701C84.6991 14.2093 84.568 14.4397 84.4204 14.6594C84.2277 14.8788 84.0238 15.088 83.8098 15.2862L83.7554 15.3429C83.3639 15.7514 82.9755 16.1568 82.3967 15.5393C82.3684 15.5091 82.3039 15.5161 82.2361 15.5235C82.194 15.5281 82.1506 15.5328 82.1138 15.5288C81.9413 15.51 81.7708 15.5069 81.6013 15.5038C81.1009 15.4947 80.609 15.4857 80.097 15.0735C79.8782 14.8973 79.6355 14.7426 79.3899 14.5861C79.016 14.3478 78.6355 14.1052 78.3227 13.7763C77.8041 13.2956 77.3566 12.7428 76.9937 12.1345C76.4725 11.1367 75.9587 10.1503 76.1441 8.97914C76.2483 8.6442 76.3921 8.32304 76.5723 8.02254L77.4767 8.7685C77.5419 8.55103 77.5855 8.32385 77.6295 8.09424L77.6296 8.09403C77.746 7.4875 77.8656 6.86404 78.3951 6.3579L79.3021 7.03946L79.3021 5.97063C79.601 5.91912 79.8915 5.85142 80.1789 5.78442C80.8118 5.63692 81.4299 5.49286 82.0902 5.5328C82.5989 5.54228 83.0872 5.73561 83.4659 6.07745C83.6189 6.22464 83.7835 6.35754 83.9485 6.49076C84.2671 6.74808 84.5873 7.00655 84.828 7.37137C84.9945 7.62438 85.1927 7.85645 85.3928 8.09075C85.5882 8.31957 85.7854 8.55053 85.9567 8.80521C86.3121 9.33486 86.5209 9.92078 86.7294 10.5058C86.8542 10.8561 86.9789 11.2061 87.135 11.5435C87.2722 11.8394 87.2362 12.2165 87.2005 12.5898C87.1845 12.7582 87.1684 12.9258 87.1684 13.0848C87.0331 13.1772 86.8989 13.2697 86.7652 13.3617L86.7589 13.3661ZM25.4313 44.274L25.4313 41.1267L25.1628 41.0623C25.0977 41.288 25.0081 41.5182 24.9185 41.7483L24.9185 41.7484L24.9184 41.7484C24.715 42.271 24.5115 42.7937 24.5946 43.2644C24.6297 43.4606 24.6554 43.6616 24.6815 43.8645L24.6815 43.8646C24.7642 44.5089 24.8493 45.1722 25.2423 45.762C25.4741 46.1097 25.6592 46.4914 25.8442 46.8729C26.273 47.7568 26.701 48.6393 27.7071 49.0949C27.8785 49.8083 28.4519 50.0585 29.0024 50.2987C29.1503 50.3632 29.2966 50.427 29.433 50.4989C30.3152 50.9641 31.2593 51.4167 32.2958 50.7436C32.9855 50.2956 33.696 49.8802 34.3992 49.4691L34.3995 49.469C34.7067 49.2894 35.0124 49.1106 35.3145 48.9303C35.2831 48.4678 35.2871 48.0037 35.3264 47.5419C35.476 46.6274 35.0633 45.8519 34.5788 45.2278C34.2953 44.8634 34.1432 44.4129 34.1473 43.9502C33.9131 43.5049 33.5665 43.2346 33.2302 42.9724C32.9331 42.7407 32.6441 42.5153 32.4477 42.1811C32.1894 41.8586 31.7993 41.6719 31.3876 41.6738C31.1478 41.6871 30.9036 41.6618 30.6585 41.6364H30.6585H30.6584H30.6584H30.6584H30.6583H30.6583H30.6582H30.6582H30.6582H30.6581H30.6581H30.6581H30.658H30.658H30.658H30.6579H30.6579H30.6579H30.6578H30.6578C30.1024 41.5789 29.542 41.5209 29.0164 41.9097C28.9361 41.9691 28.7754 41.9068 28.6024 41.8397L28.6024 41.8397C28.4828 41.7934 28.3575 41.7448 28.2487 41.7325C28.1645 41.7228 28.074 41.7695 27.954 41.8314C27.8902 41.8643 27.8182 41.9015 27.7343 41.9368C27.7738 41.6473 27.7669 41.3532 27.7137 41.0659C27.6291 40.833 27.3474 40.4801 27.1978 40.502C26.7582 40.5897 26.3346 40.7448 25.9418 40.9618C25.6432 41.1096 25.6648 41.3816 25.6858 41.6459C25.6921 41.7243 25.6982 41.8021 25.696 41.8757C25.6913 42.022 25.6892 42.1686 25.6872 42.3151V42.3153C25.6778 42.9691 25.6685 43.6243 25.4313 44.274ZM53.6381 56.9983L51.6417 54.9894C51.6128 54.4449 51.6215 53.8991 51.6677 53.3558C51.6961 53.1451 51.9966 52.9345 52.2212 52.8108C52.2804 52.7781 52.4044 52.864 52.5281 52.9496C52.582 52.9869 52.6358 53.0242 52.6842 53.0515C52.715 52.9901 52.744 52.9255 52.7732 52.8604C52.9446 52.4787 53.124 52.0789 53.7353 52.1982C53.8729 52.2369 54.02 52.2228 54.1477 52.1584C54.5048 51.8687 54.8927 51.572 55.3487 51.6998C55.5044 51.7434 55.6635 51.7835 55.8233 51.8238C56.5031 51.9953 57.198 52.1705 57.714 52.63C58.9736 53.7524 60.1707 54.972 60.7978 56.593C61.1896 57.5554 61.4881 58.5536 61.6893 59.5738C61.7921 60.1093 61.5809 60.6567 61.1459 60.9821C60.8265 61.207 60.5118 61.439 60.1971 61.6709L60.197 61.671L60.1968 61.6711L60.1967 61.6712L60.1964 61.6714L60.1963 61.6715L60.1961 61.6716L60.196 61.6717L60.1957 61.6719L60.1956 61.672L60.1954 61.6721L60.1953 61.6722L60.195 61.6724L60.1949 61.6724L60.1947 61.6726L60.1946 61.6727L60.1944 61.6729L60.1942 61.6729L60.194 61.6731L60.1939 61.6732C59.6935 62.0419 59.1933 62.4106 58.6745 62.7508C58.3691 62.9525 58.0091 63.0539 57.644 63.0409C55.5255 62.8564 54.0159 61.8535 53.3902 59.4459C53.3604 59.3312 53.3169 59.215 53.2735 59.099C53.1842 58.8603 53.0953 58.6228 53.1271 58.4021C53.2463 57.9169 53.4177 57.4462 53.6381 56.9983ZM57.0997 109.11L57.2726 109.992C57.4789 109.524 57.5552 109.126 57.2062 108.672C56.9834 108.381 56.8325 108.048 56.6805 107.711L56.6804 107.711C56.4755 107.258 56.2683 106.8 55.8802 106.437C55.6234 106.232 55.3913 105.997 55.1888 105.738C54.1498 104.016 52.5616 103.044 50.8067 102.268L50.7665 102.25L50.7381 102.237C50.5368 102.146 50.2677 102.025 50.1787 102.097C49.8943 102.33 49.6626 102.242 49.417 102.148C49.3583 102.126 49.2988 102.103 49.2376 102.085C49.0599 102.031 48.774 101.992 48.6732 102.09C48.3329 102.418 47.9213 102.582 47.5063 102.747L47.5062 102.747C47.4166 102.782 47.327 102.818 47.2378 102.855C47.1268 102.902 46.9187 103.006 47.1134 103.27C47.2086 103.4 47.2311 103.584 47.2566 103.793C47.2691 103.894 47.2822 104.002 47.3048 104.113C46.5912 103.755 46.0009 103.597 45.5951 104.192C45.6693 104.385 45.7305 104.58 45.7904 104.771L45.7905 104.771L45.7905 104.771L45.7905 104.771L45.7905 104.771L45.7906 104.771L45.7906 104.771L45.7906 104.771L45.7906 104.771L45.7906 104.771L45.7907 104.771L45.7907 104.771L45.7907 104.771L45.7907 104.771L45.7908 104.771L45.7908 104.772L45.7908 104.772L45.7908 104.772L45.7909 104.772C45.919 105.179 46.0408 105.566 46.2682 105.873C46.4872 106.169 46.6691 106.495 46.8511 106.821C47.2403 107.518 47.6301 108.217 48.3841 108.627C49.2302 110.174 50.6621 111.01 52.0995 111.849L52.0995 111.849L52.1005 111.849C52.2213 111.92 52.3423 111.99 52.4629 112.062C52.9139 112.395 53.5275 112.397 53.9803 112.066C54.0013 112.052 54.0228 112.037 54.0449 112.022C54.231 111.892 54.4563 111.736 54.771 112.023C54.9206 112.108 55.1004 112.123 55.2615 112.062C55.4226 112 55.5483 111.87 55.6044 111.706C55.7211 111.273 56.0206 110.945 56.3211 110.617C56.7084 110.193 57.0975 109.767 57.0997 109.11ZM145.76 41.6034L145.879 40.7641C145.917 40.7912 145.953 40.8126 145.985 40.8316C146.043 40.8664 146.088 40.8932 146.104 40.9317C146.205 41.1818 146.314 41.4291 146.422 41.6764L146.422 41.6768C146.713 42.3388 147.003 43.0005 147.163 43.7164L147.186 43.819C147.318 44.4006 147.444 44.9542 146.882 45.4096C146.727 45.5347 146.691 45.7492 146.656 45.9639C146.598 46.3117 146.54 46.6596 145.976 46.6271C145.557 47.3041 144.893 47.2554 144.249 47.2082L144.199 47.2045C144.084 47.6545 143.939 48.096 143.764 48.5261C143.546 48.9811 142.847 49.1099 142.098 48.8948C142.028 48.8747 141.96 48.8352 141.892 48.7963C141.794 48.7396 141.698 48.6843 141.605 48.6925L141.572 48.6954C140.392 48.7988 140.39 48.7991 139.884 47.8452C139.603 47.3794 139.35 46.8981 139.123 46.4035C138.914 45.8235 138.466 45.3633 137.893 45.1424C137.008 44.7681 136.378 43.959 136.229 43.0041C136.086 42.1459 136.485 41.3584 137.247 40.7394L137.571 41.1658L137.58 41.1777L137.644 41.2606L137.666 41.2904L137.672 41.2983L137.676 41.303L137.691 41.3237C137.937 41.6461 138.204 41.997 138.528 42.4227C138.528 42.198 138.527 41.9966 138.526 41.8111L138.526 41.8059V41.8009V41.796V41.7914L138.526 41.7869C138.525 41.3983 138.524 41.0792 138.53 40.7602C138.538 40.3802 138.571 40.3665 138.964 40.2052C139.063 40.1643 139.186 40.1137 139.338 40.0452C139.518 39.9635 139.727 39.9432 139.935 39.9229C140.34 39.8835 140.745 39.8441 140.947 39.3531L142.525 39.293C143.496 39.2545 144.358 39.361 144.81 40.4473C144.932 40.743 145.173 40.9885 145.422 41.2424C145.536 41.3591 145.652 41.4775 145.76 41.6034ZM0.381605 46.9391C0.470289 47.8444 1.14962 48.5782 2.04076 48.7314L2.55065 47.4958C2.79587 48.2839 3.13799 48.8788 4.05489 48.979C4.18911 48.6983 4.33743 48.4246 4.49929 48.159C4.54456 48.0912 4.61071 48.0306 4.67624 47.9707C4.8609 47.8017 5.04056 47.6373 4.73375 47.3264L5.60519 47.3923C5.81274 46.9394 6.09056 46.3343 6.35103 45.7674C6.44183 45.7903 6.53073 45.8133 6.61825 45.8359L6.61983 45.8363C6.89926 45.9084 7.16467 45.9769 7.43301 46.0298C7.48027 46.0406 7.60856 45.9094 7.60467 45.8492C7.5957 45.7189 7.55353 45.5089 7.47458 45.4824C7.39551 45.4558 7.29904 45.4629 7.20571 45.4698C7.09325 45.4781 6.98537 45.4861 6.91804 45.4343C6.84193 45.3765 6.82221 45.2436 6.79535 45.0626C6.78136 44.9684 6.76544 44.8611 6.73861 44.7446L7.32386 45.2667C7.32386 44.9297 7.32407 44.5985 7.32427 44.2718V44.2715V44.2712C7.32501 43.0716 7.32572 41.9328 7.31608 40.7942C7.31541 40.7256 7.2727 40.6594 7.22908 40.5917C7.19517 40.539 7.16072 40.4856 7.14502 40.4295C7.05829 40.1197 6.91443 39.8248 6.77338 39.5357C6.49523 38.9656 6.22799 38.4178 6.43118 37.8218C6.14909 37.0497 5.59031 37.0054 5.06498 36.9637C4.7204 36.9363 4.39022 36.9101 4.16195 36.6805C3.97628 36.7779 3.79734 36.894 3.62292 37.0071C3.24758 37.2505 2.89316 37.4803 2.53749 37.4824C2.14759 37.4848 1.86342 37.6865 1.58477 37.8843C1.3007 38.086 1.02236 38.2836 0.643577 38.2617C0.546385 38.256 0.340336 38.5428 0.342728 38.6933C0.346828 38.9638 0.2618 39.2077 0.175784 39.4545C0.0798177 39.7299 -0.0173799 40.0088 0.00659099 40.332C0.102983 41.5984 0.104583 42.8704 0.0113759 44.137C-0.0399659 44.8097 0.0916587 45.4482 0.222365 46.0824C0.281231 46.368 0.33991 46.6526 0.381605 46.9391ZM109.005 116.167L109.004 116.167L109.004 116.167C108.383 116.126 107.825 116.089 107.516 116.801C106.901 115.984 106.828 115.405 107.455 114.756C107.614 114.591 107.753 114.412 107.893 114.231L107.893 114.231L107.893 114.231L107.893 114.231L107.893 114.231L107.893 114.231L107.893 114.231L107.893 114.231L107.893 114.231L107.894 114.23L107.894 114.23L107.894 114.23L107.894 114.23L107.894 114.23L107.894 114.23L107.894 114.23C108.134 113.92 108.376 113.607 108.725 113.363C109.004 113.167 109.181 112.835 109.361 112.497C109.492 112.25 109.625 112 109.801 111.799C110.022 111.545 110.32 111.359 110.618 111.173C110.751 111.089 110.884 111.006 111.01 110.917L111.493 111.395L110.808 111.884L110.884 112.06L111.923 111.895C111.95 111.937 111.978 111.996 112.01 112.062C112.095 112.238 112.205 112.466 112.385 112.56C113.872 113.339 114.82 114.639 115.723 115.973C115.899 116.233 116.007 116.537 116.115 116.843L116.115 116.843C116.189 117.054 116.263 117.264 116.36 117.462L116.455 117.654C116.965 118.687 117.091 118.942 116.922 119.969C116.793 120.756 116.65 121.594 116.035 122.236C115.766 122.485 115.585 122.816 115.521 123.178C115.489 123.996 115.043 124.127 114.387 124.084C114.199 124.074 114.012 124.095 113.831 124.144C112.686 124.454 112.567 124.422 111.997 123.539C111.293 122.45 110.895 121.232 110.497 120.016L110.497 120.016C110.417 119.771 110.338 119.526 110.255 119.283C110.014 118.57 109.812 117.844 109.614 117.128L109.613 117.127C109.526 116.811 109.439 116.496 109.349 116.186C109.233 116.183 109.118 116.175 109.005 116.167ZM90.4385 99.8833C90.5626 99.9527 90.687 100.022 90.8112 100.093C90.9775 99.5869 91.3121 99.1768 91.7108 99.465C92.2793 99.8788 92.3708 99.4789 92.4405 99.1479C92.454 99.0834 92.4623 99.0158 92.4705 98.9486C92.4988 98.717 92.5266 98.4901 92.7668 98.4122C93.1411 98.2908 93.3247 98.0011 93.5058 97.7152C93.5839 97.5921 93.6614 97.4697 93.7536 97.3617C94.0015 97.071 94.2456 96.5784 94.1693 96.2516C94.0136 95.6992 93.7386 95.1881 93.364 94.7549C93.1513 94.4931 92.8816 94.2798 92.6112 94.0659C92.4332 93.9251 92.255 93.7841 92.0924 93.6289C91.886 93.4321 91.6863 93.2274 91.4865 93.0226C90.9197 92.4415 90.3525 91.8601 89.6321 91.4596C89.3156 91.2839 89.0205 91.07 88.7254 90.8561L88.7253 90.856C88.1709 90.4543 87.6168 90.0527 86.922 89.9045C86.2314 89.8079 85.5909 89.4872 85.0978 88.9912C84.564 88.4195 84.1555 88.5073 83.4231 89.0213C83.335 89.0831 83.2259 89.1452 83.1159 89.2078C82.8574 89.3549 82.5946 89.5045 82.5914 89.6577C82.5829 90.0558 82.3513 90.0599 82.1206 90.0639C81.9083 90.0677 81.6967 90.0714 81.6602 90.382C82.3061 91.8547 83.3895 93.117 84.4671 94.3725C84.5904 94.5162 84.7136 94.6598 84.8361 94.8036C85.5991 95.699 86.446 96.5218 87.2931 97.3448L87.2932 97.345C87.7058 97.7458 88.1184 98.1467 88.5214 98.556C89.0801 99.1233 89.7538 99.5002 90.4385 99.8833ZM146.441 88.4444L146.441 88.4443L146.414 88.3972C145.783 87.3036 145.23 86.1665 144.758 84.9942C144.657 84.7394 144.54 84.4874 144.422 84.234C143.999 83.3247 143.567 82.3962 143.849 81.2451C144.399 81.6307 144.637 82.2005 144.884 82.791C145.109 83.3286 145.341 83.8835 145.822 84.3322C145.718 83.4895 145.427 82.7552 145.124 81.9921C144.892 81.4063 144.653 80.8036 144.486 80.1218L145.443 80.6502C145.489 80.3948 145.536 80.127 145.583 79.8601L146.968 79.5956C147.007 79.6585 147.05 79.7301 147.096 79.8074L147.096 79.8075L147.097 79.8088C147.21 79.9993 147.343 80.2237 147.494 80.4357C148.312 81.5898 148.324 81.5939 149.786 82.1168L149.822 82.1298C149.99 82.1971 150.15 82.2826 150.299 82.3847C151.459 83.1225 152.516 83.9543 153.155 85.237C153.454 85.8126 153.639 86.4413 153.699 87.0879C153.718 87.2237 153.781 87.3493 153.878 87.4451C153.972 87.5269 154.016 87.6523 153.995 87.7753C153.973 87.8983 153.888 88.0006 153.772 88.0445C153.41 88.2504 153.161 88.5658 152.913 88.8808C152.712 89.1355 152.512 89.3898 152.252 89.5855C152.038 89.7724 151.914 90.0435 151.914 90.3288C151.852 90.7485 151.035 91.2917 150.654 91.2038C150.575 91.1855 150.506 91.1248 150.436 91.0639C150.297 90.9425 150.158 90.8206 149.945 91.0347C149.784 91.2164 149.636 91.4084 149.5 91.6094C147.86 90.93 147.143 89.6735 146.441 88.4444ZM101.402 57.5739L102.292 57.4259C102.479 57.1062 102.401 56.7898 102.323 56.4715C102.252 56.1837 102.181 55.8943 102.305 55.5997C102.325 55.4405 102.234 55.2883 102.084 55.2323C101.935 55.1764 101.767 55.2315 101.679 55.3653C101.637 55.4075 101.507 55.362 101.378 55.3165C101.319 55.2956 101.259 55.2747 101.208 55.2623C101.22 55.2209 101.232 55.1681 101.244 55.1153C101.269 55.0021 101.294 54.8889 101.324 54.8877C102.099 54.8567 101.868 54.2073 101.763 53.9308C101.674 53.699 101.59 53.4649 101.505 53.2305C101.159 52.2738 100.811 51.3122 100.208 50.4842L100.199 50.473C99.8857 50.0431 99.4864 49.4957 98.8118 50.0545C98.7766 50.0821 98.6659 50.0569 98.6124 50.022C98.0235 49.6377 97.6614 49.8658 97.4162 50.4502C97.202 50.9604 96.9727 50.7274 96.7932 50.5451L96.7621 50.5137L95.9613 51.1525L96.2902 52.4043C96.1334 52.3137 96.0336 52.1749 95.9358 52.0389C95.7686 51.8064 95.6073 51.5822 95.1774 51.6219L95.0858 51.7808L95.0856 51.7812L95.0851 51.7821L95.0845 51.7831L95.0844 51.7834L95.0839 51.7842C94.9945 51.9394 94.895 52.1123 94.7932 52.2839C94.7435 52.3671 94.6977 52.4681 94.6518 52.5691C94.5503 52.7929 94.4487 53.0169 94.3045 53.0482C93.7078 53.1779 93.8467 53.5002 93.9722 53.7914C93.9886 53.8293 94.0047 53.8667 94.0189 53.9031C94.1824 54.3219 94.3658 54.7328 94.5492 55.1437C94.6781 55.4326 94.8071 55.7216 94.9292 56.0134C94.9853 56.1948 95.023 56.3814 95.0417 56.5704L94.8054 56.6468C94.3634 55.6701 93.9217 54.6933 93.4256 53.5962C93.2138 54.4926 93.4785 55.1004 93.7746 55.7603C94.246 56.8022 94.849 57.7785 95.5689 58.665C96.4771 59.7908 97.5663 60.7248 99.2012 60.4203C99.3355 60.4064 99.4708 60.4053 99.6052 60.417L101.761 58.2474L101.402 57.5739ZM97.013 26.1254L97.6156 26.732L97.664 26.313C97.6921 26.0701 97.7184 25.8422 97.746 25.6015C97.9242 25.564 98.1039 25.5235 98.2851 25.4827C98.7141 25.3862 99.151 25.2879 99.593 25.2223C99.9771 25.166 100.367 25.1673 100.751 25.2263C100.873 25.2451 100.903 25.3518 100.938 25.4726C100.985 25.6391 101.04 25.8324 101.352 25.86C101.64 25.8849 101.873 26.2978 102.085 26.6739L102.085 26.6743L102.085 26.6749L102.086 26.676C102.13 26.7533 102.172 26.8289 102.214 26.8993C102.279 27.0076 102.292 27.1562 102.305 27.3067C102.332 27.6241 102.36 27.9493 102.878 27.9197L102.957 29.3484C102.959 29.3803 102.965 29.4121 102.97 29.4439L102.975 29.471L102.977 29.4863L105.144 31.6661C105.381 31.6495 105.619 31.6519 105.856 31.6733C106.217 31.7314 106.607 32.0922 106.422 32.316C106.201 32.5824 106.311 32.8051 106.415 33.0167C106.506 33.2002 106.592 33.3753 106.455 33.5633C105.328 33.9036 104.973 33.941 104.056 33.7797C104.285 34.2795 104.485 34.7152 104.737 35.2626C104.693 35.3047 104.645 35.3647 104.595 35.4282C104.476 35.5785 104.341 35.7484 104.207 35.7473C103.951 35.7455 103.693 35.7579 103.434 35.7703C102.477 35.8162 101.514 35.8625 100.671 35.187C100.357 34.9863 100.066 34.7518 99.8035 34.4877C99.3635 33.933 98.9626 33.3465 98.5622 32.7606L98.4341 32.5733L98.3582 32.4626C98.224 32.2671 98.1013 32.0637 97.9786 31.8603C97.8894 31.7124 97.8002 31.5645 97.7065 31.4196C97.5764 31.2178 97.51 30.9826 97.4436 30.7475C97.3346 30.3608 97.2255 29.9744 96.833 29.7369C96.906 29.2425 96.711 28.8399 96.5118 28.4284L96.5116 28.4281C96.4506 28.302 96.3891 28.175 96.3348 28.0443C96.1624 27.7008 96.1373 27.3012 96.2655 26.9387C96.3936 26.5761 96.6638 26.2822 97.013 26.1254ZM53.3687 4.38241H52.023C51.1434 4.28555 50.2534 4.39335 49.4218 4.69747C49.0658 4.82566 48.7541 5.04643 48.4399 5.26891C48.1206 5.49505 47.7988 5.72294 47.4256 5.85718C47.3413 5.88727 47.2701 6.09791 47.2788 6.21828C47.3023 6.59021 47.3523 6.95997 47.4283 7.32473C47.5752 8.00476 47.9706 8.54174 48.3672 9.08042C48.4864 9.2423 48.6057 9.40432 48.7184 9.57043C49.6808 10.9874 50.8312 12.0502 52.6713 12.0147C52.8086 12.0034 52.9453 12.043 53.0556 12.1261C53.4083 12.5065 53.693 12.3335 53.9764 12.1614C54.1314 12.0673 54.2859 11.9734 54.451 11.9702C54.8424 11.3482 55.47 11.0286 56.0819 10.717C56.2989 10.6065 56.5139 10.497 56.7157 10.3754C57.4024 9.96162 57.5976 9.5259 57.4517 8.91896C57.4227 8.79831 57.3951 8.67656 57.3674 8.55449C57.1507 7.59879 56.9295 6.6235 56.0228 6.00312C55.9015 5.9196 55.8026 5.80193 55.7035 5.684C55.4958 5.43694 55.2872 5.18872 54.87 5.25084C54.7427 5.2411 54.6295 5.16572 54.5709 5.05164C54.4627 4.36619 53.9904 4.37352 53.5155 4.38089C53.4664 4.38165 53.4174 4.38241 53.3687 4.38241ZM49.6858 75.533C49.8991 75.8706 50.0558 76.1188 50.3605 76.6009C50.3868 76.4039 50.4068 76.2571 50.4227 76.1409L50.4228 76.1403L50.4229 76.1397C50.4482 75.9549 50.4628 75.8479 50.4748 75.7403L50.475 75.7383C50.5042 75.4724 50.5201 75.3286 50.5991 75.2437C50.6921 75.1437 50.8727 75.1253 51.2659 75.0851L51.2678 75.0849C51.2912 75.0825 51.3177 75.0815 51.3448 75.0805C51.424 75.0776 51.5082 75.0744 51.5325 75.0358C51.8085 74.5523 52.3876 74.3349 52.9109 74.5186C53.5232 74.6698 54.0997 74.9413 54.6074 75.3175C56.4137 76.8491 57.4759 78.9023 58.301 81.0806C58.3975 81.3349 58.3712 81.6362 58.3451 81.9356C58.333 82.0732 58.321 82.2105 58.321 82.3426L57.7645 82.2806C57.801 82.8066 57.6829 83.196 57.0716 83.3208C56.8482 83.4016 56.6789 83.5882 56.6194 83.8195C56.5828 84.1961 56.3393 84.2396 56.1004 84.2823C55.9376 84.3114 55.777 84.3401 55.6855 84.4736C55.493 84.1654 55.2263 84.2209 54.958 84.2768C54.724 84.3254 54.4887 84.3744 54.3 84.183C54.1638 84.0446 54.0102 83.9173 53.857 83.7904C53.573 83.555 53.2906 83.321 53.1241 83.0199C52.5322 82.0096 52.0504 80.938 51.6871 79.8236C51.5753 79.3226 51.2667 78.8884 50.8315 78.62C50.1327 78.2373 49.5722 77.642 49.2301 76.9193L49.2187 76.8945C48.9416 76.2889 48.9396 76.2844 49.6858 75.533ZM77.0197 57.9426C76.9928 58.118 76.9888 58.2963 77.0078 58.4728C77.2826 58.8627 77.5866 59.2055 77.8845 59.5415C78.0261 59.7012 78.1664 59.8594 78.3015 60.0204C79.1355 61.0209 79.9944 62.047 81.3007 62.5781C82.173 62.9323 82.9814 62.827 83.438 62.2149C83.5689 62.0396 83.7567 61.9123 83.9436 61.7856C84.2781 61.5589 84.6098 61.3341 84.6077 60.8394C85.4049 60.7257 85.2692 60.0622 85.146 59.6424C84.8017 58.4683 84.4222 57.2809 83.5849 56.3411C83.4308 56.1681 83.2424 56.0265 83.0539 55.8848L83.0538 55.8848C82.8795 55.7538 82.705 55.6226 82.5573 55.4664C82.313 55.2081 82.0989 54.9209 81.8678 54.6108L81.8677 54.6107C81.7628 54.47 81.6544 54.3247 81.5382 54.1751L79.3957 54.5913L79.3605 54.8073L79.3369 54.9517L79.3365 54.9543C79.3064 55.1379 79.2759 55.3241 79.2396 55.5497L77.6196 54.22C77.5077 54.3266 77.4013 54.4496 77.3009 54.5656C77.0968 54.8016 76.9179 55.0084 76.7691 54.9882C76.5276 54.9559 76.3273 55.0239 76.127 55.0919C75.9304 55.1586 75.7338 55.2254 75.4981 55.1973C75.6257 55.3674 75.833 55.3974 76.0328 55.4263C76.3424 55.4711 76.6341 55.5133 76.5834 56.07L75.9028 55.7757C75.6735 56.4688 76.1272 56.7394 76.5984 57.0205L76.5987 57.0207C76.645 57.0483 76.6914 57.076 76.7374 57.1042C76.6627 56.8481 76.5894 56.5918 76.4982 56.274C76.6525 56.2921 76.8027 56.3365 76.9423 56.4052C77.0914 56.5195 77.2089 56.6703 77.2835 56.8433C77.301 56.8908 77.2628 56.9547 77.2223 57.0225C77.1852 57.0846 77.1462 57.1498 77.1462 57.2086C77.1469 57.2747 77.1809 57.3425 77.2141 57.4091C77.2509 57.4825 77.2868 57.5544 77.2766 57.6209C77.2676 57.6807 77.2088 57.7319 77.1494 57.7836C77.0922 57.8333 77.0344 57.8836 77.0197 57.9426ZM101.032 77.4949L101.754 77.7425C101.783 77.0756 101.426 76.6681 101.064 76.2549C100.756 75.9038 100.445 75.5485 100.364 75.0265C100.579 75.0977 100.786 75.1928 100.98 75.3103C101.243 75.5442 101.493 75.7915 101.73 76.0514C101.701 75.6068 101.516 75.1872 101.208 74.8673C101.637 74.3443 101.826 74.1145 102.069 74.0131C102.259 73.9336 102.481 73.933 102.879 73.9318C103.03 74.1029 103.174 74.2905 103.32 74.4798L103.32 74.4798C103.654 74.9144 103.995 75.3578 104.439 75.6307C104.868 75.8941 105.112 76.2709 105.355 76.645C105.511 76.8856 105.667 77.1252 105.87 77.3327C106.344 77.8865 106.733 78.5085 107.024 79.1782C107.229 79.5363 107.325 79.9473 107.299 80.3599C107.224 80.8314 107.024 81.5247 106.693 81.6589C106.313 81.8129 106.257 82.0481 106.2 82.2895C106.175 82.3942 106.15 82.5001 106.098 82.6011C105.863 83.0566 105.541 83.4999 104.951 83.5977C104.826 83.6184 104.692 83.6665 104.56 83.7139L104.56 83.714C104.329 83.7971 104.104 83.878 103.943 83.805C103.308 83.5443 102.73 83.1632 102.238 82.6823C101.389 81.7478 100.601 80.7593 99.878 79.7228C99.7558 79.5523 99.7519 79.2962 99.7472 78.9948V78.9947V78.9946C99.7449 78.8414 99.7423 78.6766 99.724 78.5053L100.272 78.9501C100.2 78.4529 100.464 78.1728 100.712 77.9084C100.837 77.7752 100.959 77.6459 101.032 77.4949ZM92.59 130.863L93.3676 131.292C93.2869 130.798 93.1731 130.311 93.0269 129.833C92.9504 129.639 92.6788 129.366 92.5293 129.386C92.2012 129.429 92.0026 129.246 91.8175 129.075C91.6979 128.965 91.5839 128.86 91.4443 128.825C91.0909 128.737 90.8909 128.518 90.6922 128.301C90.6145 128.216 90.537 128.132 90.4506 128.055C90.2756 127.9 90.1166 127.717 89.9584 127.536C89.6905 127.228 89.425 126.924 89.0884 126.76C88.7529 126.596 88.511 126.357 88.2722 126.12C88.1178 125.968 87.9647 125.816 87.7884 125.687C87.4773 125.46 87.1621 125.238 86.8477 125.017L86.8475 125.016L86.8473 125.016L86.8471 125.016L86.8468 125.016L86.8459 125.015L86.845 125.015L86.6824 124.9C86.598 124.841 86.5138 124.781 86.4298 124.722H84.8511C85.0075 125.254 84.7308 125.254 84.4516 125.255C84.2334 125.255 84.0137 125.255 83.9985 125.51C83.9816 125.711 84.1302 125.843 84.2803 125.976C84.4892 126.162 84.701 126.35 84.4728 126.73C84.395 126.663 84.3207 126.588 84.247 126.513C83.9549 126.217 83.672 125.93 83.2197 126.208C83.26 127.056 83.8029 127.574 84.3462 128.093L84.4243 128.168C84.5354 128.262 84.6379 128.367 84.7306 128.48C85.6638 129.785 86.6923 131.02 87.8075 132.172C87.9385 132.306 88.0372 132.471 88.1361 132.636C88.2278 132.789 88.3196 132.943 88.4373 133.071L88.4861 133.125C88.9188 133.6 89.3666 134.091 90.1159 133.986C90.1548 133.673 89.9978 133.434 89.8439 133.2C89.6581 132.917 89.4768 132.641 89.6491 132.251L91.1249 133.736L91.898 133.284L91.2144 131.687C92.1812 132.116 92.2611 132.054 92.59 130.863ZM83.351 33.1878C83.5227 33.1993 83.6763 33.1762 83.8223 33.1543C84.1028 33.1122 84.3558 33.0741 84.6573 33.2934L84.0708 33.4965C84.1175 33.6557 84.1655 33.8146 84.2136 33.9736L84.2137 33.9739L84.2137 33.9742L84.2138 33.9745L84.2139 33.9748C84.3433 34.4029 84.4729 34.8314 84.5751 35.2647C84.6112 35.4175 84.5317 35.719 84.4255 35.7639C84.0828 35.9094 83.8802 36.1868 83.6798 36.4614C83.5379 36.6556 83.3971 36.8484 83.2084 36.9922C82.9765 37.1342 82.7125 37.2147 82.4413 37.226C82.3752 37.2334 82.303 37.1865 82.231 37.1398C82.1594 37.0933 82.0879 37.0468 82.0226 37.0539C81.8489 37.109 81.6867 37.1957 81.5441 37.3097L81.5262 37.2455C81.2944 36.4182 81.2824 36.3754 80.3219 36.0458C79.9558 35.9204 79.7699 35.6478 79.5814 35.3715C79.4664 35.2028 79.3505 35.0328 79.1921 34.8939L79.0074 35.2894L78.9065 35.5057C78.859 35.4554 78.8009 35.4066 78.7441 35.3589C78.6255 35.2593 78.5125 35.1644 78.5129 35.07C78.5207 33.3226 78.5192 33.2829 77.7261 32.236C77.4563 32.7111 77.659 33.0658 77.8736 33.4412C78.0159 33.69 78.1633 33.9479 78.1819 34.256C78.1127 34.2452 78.0324 34.2406 77.9544 34.236C77.7928 34.2267 77.6408 34.2179 77.6158 34.1564C77.5606 34.0216 77.5012 33.8879 77.4419 33.7544C77.1004 32.9856 76.7618 32.2235 77.2569 31.292C77.2797 31.2492 77.3002 31.2089 77.3193 31.1712C77.4519 30.9102 77.5213 30.7736 77.8756 30.7678C78.1441 30.7361 78.3999 30.6348 78.6179 30.4739C79.0264 30.2139 79.4244 29.9376 79.8409 29.6485L79.841 29.6484L79.8417 29.648C80.0137 29.5286 80.1888 29.407 80.3691 29.2834L80.6084 29.6445C80.8142 29.7886 81.0237 29.708 81.2032 29.6388C81.4487 29.5443 81.638 29.4713 81.685 30.0252C81.694 30.1302 81.7893 30.0982 81.9031 30.0602C82.0846 29.9994 82.313 29.923 82.313 30.3607C82.313 30.5517 82.5547 30.7429 82.7872 30.9267L82.7872 30.9268L82.7873 30.9269C82.8903 31.0083 82.9915 31.0883 83.069 31.1662C83.0192 31.2972 82.9704 31.4247 82.9222 31.5507L82.8073 31.8514C82.8789 31.9018 82.9506 31.9519 83.0224 32.0019L83.1743 31.7114L83.4357 31.2117C83.6212 31.5287 83.7511 31.7506 83.8821 31.9741L84.0457 32.2534C83.8319 32.5417 83.5915 32.8649 83.351 33.1878ZM33.4535 75.863L34.3506 77.0014C34.5217 76.8859 34.6792 76.7512 34.8201 76.6C34.8978 76.438 34.966 76.2716 35.0244 76.1017L35.0364 76.076L35.0364 76.0759C35.107 75.925 35.2192 75.6849 35.2615 75.6951C35.5967 75.7768 35.8266 75.5737 36.0559 75.3711C36.3017 75.1539 36.5468 74.9374 36.9201 75.0729C36.9713 74.9604 37.0165 74.8453 37.0556 74.728C36.766 74.5911 36.8205 74.3807 36.8743 74.1725C36.9026 74.0631 36.9308 73.9543 36.9087 73.8572C36.814 73.4389 36.5917 73.1049 36.372 72.7747C36.2166 72.5413 36.0625 72.3098 35.9557 72.0517C35.5002 70.9323 34.7947 69.9335 33.8937 69.1329L30.9136 69.5541L30.9136 70.9823C30.6859 70.9007 30.5276 70.7202 30.374 70.5452C30.1537 70.294 29.9431 70.054 29.5517 70.134C29.3767 70.9404 29.4031 71.7195 29.8457 72.34C30.2119 72.8534 30.5339 73.3935 30.8554 73.933C31.1656 74.4533 31.4754 74.973 31.8242 75.4677C32.1348 75.9585 32.5692 76.3577 33.0832 76.6244L33.4535 75.863ZM66.639 94.7416L67.2161 96.084L67.4853 95.3699C67.4926 95.3745 67.5005 95.3789 67.5087 95.3832C67.5238 95.391 67.5401 95.3986 67.5563 95.4061C67.6094 95.4307 67.6617 95.4549 67.6713 95.4903C67.7974 95.9846 68.0488 96.4375 68.401 96.8047C68.6099 97.0482 68.7845 97.3196 68.9198 97.6111C69.1445 98.1135 69.6032 98.4701 70.143 98.562C70.2363 98.3712 70.3326 98.1744 70.3771 98.083L71.1768 98.6848C71.1768 98.7569 71.1798 98.8128 71.182 98.855C71.1855 98.9196 71.1872 98.952 71.1738 98.9607C70.9653 99.0973 70.7529 99.2276 70.5513 99.3512L70.3936 99.4482C70.4648 99.8484 70.5294 100.212 70.6256 100.755L69.6059 100.256L69.2879 100.9L69.0179 101.447L68.3125 101.528L68.3125 102.18C67.5804 102.732 66.9808 102.658 66.3459 102.075C66.0835 101.835 65.8084 101.608 65.5296 101.378L65.5294 101.378C65.0732 101.002 64.6068 100.618 64.1688 100.15L65.0659 99.5529C64.8961 98.9523 64.6016 98.3948 64.202 97.9172C63.9121 97.5567 63.714 97.1218 63.5193 96.6942L63.5192 96.694C63.4346 96.5084 63.3507 96.3242 63.2602 96.1481C63.5979 95.7291 63.8795 95.8867 64.1763 96.0529C64.2548 96.0969 64.3344 96.1414 64.4164 96.1761C64.4218 96.1284 64.4325 96.0797 64.4429 96.0321C64.465 95.9318 64.486 95.8362 64.4544 95.7641C64.1622 95.1021 64.2884 94.7756 64.908 94.7467C65.3113 94.7284 65.7158 94.733 66.1143 94.7376C66.2906 94.7396 66.4656 94.7416 66.639 94.7416ZM25.8422 101.573L25.1493 100.542L25.1123 100.566L25.0549 100.604C24.7881 100.779 24.5533 100.933 24.512 101.362C24.4176 102.338 24.8019 103.162 25.185 103.983C25.2836 104.194 25.3821 104.406 25.4723 104.619C25.6532 105.047 26.3832 105.187 26.9622 105.06C27.1946 105.014 27.4319 104.999 27.6682 105.014C28.2596 105.074 28.793 104.654 28.877 104.062C28.9679 103.645 29.069 103.366 29.5023 103.243C29.8914 103.161 30.145 102.782 30.0747 102.388C30.072 102.348 30.0685 102.308 30.065 102.267C30.0367 101.936 30.0075 101.595 30.3439 101.325C30.4356 101.151 30.4339 100.943 30.3394 100.772C30.285 100.694 30.1684 100.647 30.0593 100.603C29.9442 100.556 29.8373 100.513 29.8202 100.441C29.799 100.35 29.8625 100.245 29.9284 100.136C29.9889 100.036 30.0515 99.9323 30.0523 99.834C30.0589 99.1464 29.5505 98.7859 29.0152 98.5792C28.8719 98.5235 28.713 98.5197 28.5502 98.5158C28.3047 98.5099 28.0503 98.5037 27.8273 98.3192C27.8069 98.3023 27.6869 98.4139 27.5456 98.5454L27.5453 98.5456L27.5453 98.5457C27.4326 98.6505 27.3064 98.768 27.2062 98.8431C27.0783 98.9109 26.942 98.9614 26.801 98.9935L26.801 100.192C26.6231 99.8201 26.5336 99.6329 26.4604 99.4792H25.6125C25.649 99.641 25.6849 99.7974 25.72 99.9499L25.7201 99.95C25.8147 100.361 25.9029 100.744 25.9753 101.131C25.9887 101.202 25.9558 101.281 25.9134 101.384C25.8905 101.44 25.8649 101.502 25.8422 101.573ZM71.8984 74.1524L73.1045 74.5077C73.3016 74.0353 73.3599 73.5815 72.9439 73.1591C73.2466 72.8821 73.4894 73.0168 73.7412 73.1565C73.9142 73.2526 74.0916 73.351 74.2956 73.3197L74.4404 72.535C74.6377 72.3231 74.8257 72.4147 75.0239 72.5113C75.2198 72.6067 75.4257 72.7071 75.6605 72.5241C75.9529 72.2974 76.1135 72.5024 76.2851 72.7215C76.3982 72.8659 76.5161 73.0164 76.6797 73.0534C76.9296 73.1538 77.1435 73.3279 77.2931 73.5529C77.5221 73.8357 77.6703 74.1676 77.8192 74.5011C78.0261 74.9644 78.2344 75.4309 78.663 75.7737C78.7809 75.868 78.7781 76.1148 78.775 76.3964C78.7735 76.5372 78.7718 76.6867 78.7851 76.8302C78.3657 76.6231 78.1484 76.8654 77.93 77.1089C77.7225 77.3402 77.5141 77.5726 77.1307 77.4221C77.0578 77.5408 77.0276 77.6887 76.9967 77.8397C76.9252 78.1899 76.8502 78.557 76.2314 78.6167L75.7828 77.8467L75.6105 78.2098L75.4315 78.5866C74.9573 78.6993 74.7289 78.312 74.5676 78.0384L74.5454 78.0007C74.0223 77.1104 73.2824 76.3689 72.3955 75.8462C71.8368 75.5107 71.5309 74.9639 71.8984 74.1524ZM62.9555 36.6404L64.8057 35.1813C64.772 35.0345 64.7491 34.871 64.7254 34.7015C64.67 34.3057 64.61 33.8769 64.3966 33.5498C63.8682 32.7037 63.2125 31.9453 62.4528 31.3017C61.5607 30.5834 60.5071 29.9912 59.3881 31.0444C59.3163 31.1119 59.2011 31.1326 59.0711 31.1561C59.0035 31.1682 58.9319 31.1812 58.8602 31.2018C58.8859 31.333 58.8988 31.4652 58.9111 31.5911C58.9363 31.8482 58.9589 32.0792 59.0821 32.223C59.165 32.3199 59.2497 32.4151 59.3342 32.5102C59.8375 33.0762 60.3335 33.6342 60.3965 34.4612C60.8358 34.8192 61.0611 35.31 61.2847 35.7972C61.4189 36.0895 61.5524 36.3804 61.7312 36.6404H62.9555Z" fill="#171B1B"/>
</svg>
