<svg width="49" height="48" viewBox="0 0 49 48" fill="none" xmlns="http://www.w3.org/2000/svg">
<rect x="0.710449" width="48" height="48" rx="24" fill="#171B1B"/>
<path fill-rule="evenodd" clip-rule="evenodd" d="M15.9995 13.039C8.79839 16.794 20.2336 39.0211 27.6007 35.654C27.7217 35.599 29.7027 34.625 29.7107 34.621L26.1897 27.826C26.1827 27.83 24.2166 28.796 24.1256 28.837C21.8866 29.923 17.3275 21.017 19.5166 19.843L21.5986 18.817L18.1065 12L15.9995 13.039ZM28.9797 23.115L26.0627 22.245L26.9317 19.329C27.6777 19.551 28.3407 20.059 28.7397 20.798C29.1397 21.536 29.2027 22.368 28.9797 23.115ZM27.8667 16.187C29.4177 16.649 30.7927 17.703 31.6227 19.238C32.4538 20.774 32.5828 22.501 32.1207 24.051L30.3257 23.516C30.6507 22.425 30.5587 21.21 29.9737 20.129C29.3907 19.048 28.4227 18.307 27.3307 17.983L27.8667 16.187ZM34.5458 17.656C33.2798 15.312 31.1817 13.705 28.8167 13L28.2677 14.841C30.1627 15.405 31.8427 16.693 32.8588 18.57C33.8728 20.446 34.0308 22.557 33.4668 24.452L35.3068 25C36.0118 22.634 35.8148 19.999 34.5458 17.656Z" fill="#F5D3AB"/>
</svg>
