<svg width="49" height="48" viewBox="0 0 49 48" fill="none" xmlns="http://www.w3.org/2000/svg">
<rect x="0.710449" width="48" height="48" rx="24" fill="#171B1B"/>
<path fill-rule="evenodd" clip-rule="evenodd" d="M16.7104 19.602C16.7104 15.403 20.5124 12 24.7104 12C28.9094 12 32.7104 15.403 32.7104 19.602C32.7104 23.3906 29.8851 27.8421 26.0037 33.9576C25.5842 34.6186 25.1524 35.2989 24.7104 36C24.2685 35.2989 23.8367 34.6186 23.4172 33.9576C19.5358 27.8421 16.7104 23.3906 16.7104 19.602ZM18.7104 20C18.7104 23.314 21.3964 26 24.7104 26C28.0244 26 30.7104 23.314 30.7104 20C30.7104 16.686 28.0244 14 24.7104 14C21.3964 14 18.7104 16.686 18.7104 20Z" fill="#F5D3AB"/>
</svg>
