<svg width="229" height="245" viewBox="0 0 229 245" fill="none" xmlns="http://www.w3.org/2000/svg">
<path d="M6.93595 126.76C0.76684 132.93 5.12551 157.235 5.12551 164.055C5.12551 182.384 10.3558 200.536 21.4194 215.472C34.1952 232.719 73.0542 247.32 93.8368 239.007C110.572 232.313 131.209 219.298 140.184 202.98C155.404 175.307 166.449 147.377 196.67 134.726C235.705 118.386 229.211 64.7819 210.248 35.1524C189.343 2.48847 165.91 -0.858678 130.408 9.08212C97.6603 18.2514 81.3093 33.2533 69.577 63.7573C62.5443 82.0422 37.7896 93.5278 26.3076 108.837C20.7337 116.269 13.3412 120.355 6.93595 126.76Z" stroke="#9EAD8D" stroke-width="7" stroke-linecap="round"/>
</svg>
