<svg width="242" height="259" viewBox="0 0 242 259" fill="none" xmlns="http://www.w3.org/2000/svg">
<path fill-rule="evenodd" clip-rule="evenodd" d="M24.4859 1.97158C24.3252 2.10225 24.1576 2.2385 23.9792 2.3812C22.5989 1.20792 22.1669 1.12715 21.0573 2.1278L20.9859 2.19204C20.4506 2.67322 19.8818 3.18441 19.7719 4.04221C19.719 4.45833 19.5902 4.86423 19.4612 5.27069C19.3383 5.65817 19.2152 6.04615 19.1575 6.44396C18.9206 8.08469 18.8961 9.71848 19.8167 11.2108C20.1127 11.69 20.385 12.184 20.6671 12.6957L20.6671 12.6957L20.6671 12.6958L20.6672 12.6959L20.6672 12.6959C20.7976 12.9324 20.93 13.1727 21.0678 13.417L21.7203 13.5958C21.799 13.6174 21.878 13.6382 21.957 13.659L21.957 13.659L21.9571 13.659L21.9571 13.6591L21.9572 13.6591L21.9572 13.6591L21.9573 13.6591L21.9574 13.6591L21.9574 13.6591L21.9575 13.6591L21.9575 13.6592L21.9576 13.6592L21.9576 13.6592L21.9577 13.6592L21.9577 13.6592L21.9578 13.6592L21.9579 13.6593L21.9579 13.6593L21.958 13.6593L21.958 13.6593L21.9581 13.6593L21.9581 13.6593L21.9582 13.6593L21.9583 13.6594L21.9583 13.6594L21.9583 13.6594L21.9583 13.6594L21.9583 13.6594L21.9584 13.6594L21.9584 13.6594L21.9584 13.6594L21.9584 13.6594L21.9584 13.6594L21.9584 13.6594L21.9585 13.6594L21.9585 13.6594L21.9585 13.6594L21.9585 13.6594L21.9585 13.6594L21.9585 13.6594L21.9586 13.6594L21.9586 13.6594L21.9586 13.6595L21.9586 13.6595L21.9586 13.6595C22.1173 13.7013 22.2761 13.7431 22.4329 13.7911C23.6562 14.1646 23.6564 14.1686 23.7432 15.7786L23.7452 15.816C23.7532 15.9668 23.8002 16.127 23.8463 16.2842C23.9161 16.5221 23.9838 16.7531 23.9114 16.9342C23.4813 18.0076 23.9652 18.7425 24.6023 19.4833L25.3547 18.2907L26.1924 16.9627L26.5229 17.1285L25.7939 19.7891C27.3336 20.6165 27.7933 19.5721 28.2222 18.5977C28.2489 18.5372 28.2754 18.4769 28.3021 18.4174C29.1679 19.1361 29.912 19.4195 30.657 18.5727C31.2563 17.8917 31.4909 18.3193 31.7302 18.7553C31.7631 18.8153 31.796 18.8754 31.8301 18.9328C33.1972 17.7256 34.1134 16.0839 34.4254 14.2822C34.7225 12.8943 35.1143 11.5271 35.5063 10.1596L35.5063 10.1595L35.5063 10.1593L35.5064 10.1592L35.5064 10.159L35.5065 10.1588L35.5065 10.1587L35.5066 10.1585L35.5066 10.1583L35.5067 10.1581L35.5067 10.158L35.5068 10.1578L35.5068 10.1576L35.5069 10.1575L35.5069 10.1573L35.5069 10.1571L35.507 10.1569L35.507 10.1568L35.5071 10.1566L35.5071 10.1564L35.5072 10.1563L35.5072 10.1561L35.5073 10.1559L35.5073 10.1558C35.7088 9.45293 35.9103 8.75005 36.0988 8.04424C36.19 7.62737 36.2602 7.2062 36.3091 6.78237L36.0619 6.7263L35.1993 8.97212C35.0941 8.31004 35.1505 7.63139 35.3635 6.99472C35.52 6.3732 35.6287 5.74066 35.6887 5.10273C35.6849 4.5092 35.6404 3.91682 35.5554 3.32985L34.8701 4.33443C34.4652 2.62798 34.4629 2.62792 32.8603 2.58298L32.8476 2.58262C32.6283 2.57605 32.2784 2.55963 32.2165 2.43673C31.8819 1.75707 31.5168 1.7884 30.8498 2.04C30.6938 2.09869 30.4744 1.92274 30.2326 1.7289C30.0097 1.55019 29.7679 1.35628 29.5393 1.31704C28.9342 1.24582 28.3203 1.31003 27.7414 1.50509C27.3602 1.61833 27.1354 1.40114 26.9163 1.1896C26.7143 0.994485 26.5173 0.804175 26.2071 0.882365C25.9761 0.925213 25.7546 1.01051 25.5538 1.134C25.201 1.39001 24.8623 1.66548 24.4859 1.97158L24.4859 1.97158ZM63.4172 36.268C63.1178 36.2797 62.8069 35.9986 62.1968 35.447C62.0037 35.612 61.776 35.7255 61.5462 35.8402C61.0563 36.0845 60.5567 36.3337 60.3615 37.0958C60.0893 38.093 60.1988 39.1552 60.6683 40.0715C60.7195 40.1772 60.7677 40.2899 60.8165 40.4037C60.9727 40.7684 61.1339 41.1445 61.4115 41.3393C62.2249 41.9104 62.6329 42.7375 63.04 43.5626C63.2379 43.9636 63.4355 44.3642 63.6793 44.7347C64.5427 46.0487 64.5314 47.6098 64.2503 49.0323C63.5684 52.4859 64.6163 55.624 65.6634 58.7596L65.6634 58.7597L65.7481 59.0134C66.0881 60.0282 67.0193 60.4483 67.9647 60.8748L67.9649 60.8749C68.1263 60.9477 68.2881 61.0207 68.4474 61.0968L68.5256 61.1342C70.2548 61.9609 70.6611 62.1551 71.7186 61.0164L71.7695 60.9614L71.8317 60.894L71.8344 60.891C72.4959 60.1726 72.9269 59.7046 73.6765 60.852C73.7316 60.9392 74.1079 60.833 74.3992 60.7508C74.4506 60.7363 74.4994 60.7226 74.5432 60.7107C74.6612 60.6787 74.8102 60.6102 74.9467 60.5473C75.1305 60.4628 75.2917 60.3886 75.3243 60.4279C76.105 61.3975 76.4334 60.4931 76.5978 60.0403L76.6061 60.0174C76.6618 59.8644 76.7192 59.7103 76.7769 59.5554L76.7772 59.5547C77.158 58.5326 77.5523 57.4746 77.5534 56.4355C77.5536 56.0694 77.591 55.695 77.6286 55.3187C77.7228 54.3767 77.8181 53.4224 77.334 52.5547C76.9677 52.0142 76.8878 51.3263 77.1199 50.7125C77.1725 50.4086 77.1374 50.0962 77.0189 49.8124C76.963 49.618 76.908 49.4231 76.8529 49.2282L76.8521 49.2253C76.6122 48.3758 76.3721 47.5254 76.0615 46.703C75.8527 46.1507 75.6058 45.6132 75.3589 45.0758C75.1066 44.5265 74.8543 43.9773 74.6428 43.4125C74.3437 42.6148 73.9751 41.8441 73.6113 41.0837L73.6113 41.0836C73.539 40.9323 73.4668 40.7815 73.3955 40.631C73.3138 40.4586 73.2343 40.2832 73.1545 40.107C72.6154 38.9167 72.0591 37.6885 70.6794 37.0968C69.7141 36.6266 68.7749 36.104 67.866 35.5314C67.1698 35.939 66.5249 35.7225 65.8828 35.5069C65.4704 35.3685 65.0591 35.2304 64.636 35.2583L64.636 35.2583L64.636 35.2583C64.0269 35.9276 63.7282 36.2558 63.4172 36.268ZM196.482 241.057C197.381 239.056 198.653 237.404 200.628 236.568C200.683 236.19 200.729 235.843 200.771 235.518L200.772 235.517L200.772 235.516C200.857 234.866 200.931 234.302 201.053 233.753C201.297 232.672 201.305 231.506 200.358 230.961C199.228 230.31 198.633 229.637 198.935 228.314C198.95 228.157 198.894 228.002 198.781 227.893C197.74 227.051 197.176 225.898 196.612 224.746L196.612 224.746L196.612 224.746C196.317 224.145 196.023 223.545 195.662 222.988C195.617 222.92 195.575 222.855 195.535 222.792L195.521 222.77L195.52 222.769C194.714 221.52 194.671 221.453 192.723 221.065C192.332 220.988 191.934 220.94 191.478 220.885L191.478 220.885L191.478 220.885L191.476 220.885L191.473 220.884L191.471 220.884C191.357 220.87 191.241 220.856 191.119 220.841C191.001 220.827 190.878 220.811 190.75 220.794C190.177 219.589 189.681 218.349 189.264 217.08C189.165 216.724 189 216.383 188.834 216.042L188.834 216.042C188.485 215.323 188.135 214.602 188.403 213.728C187.712 213.435 187.443 212.813 187.199 212.249C187.04 211.882 186.892 211.539 186.645 211.327L184.096 211.15L183.732 212.48C183.519 212.16 183.394 211.973 183.338 211.888L182.278 212.233C182.946 216.266 183.993 220.224 185.405 224.055C185.651 224.632 185.53 225.303 185.098 225.759C184.893 225.155 184.685 224.569 184.48 223.994C184.029 222.729 183.596 221.515 183.268 220.273C182.849 218.682 182.516 217.066 182.184 215.448L182.183 215.447L182.183 215.446L182.183 215.445L182.183 215.444L182.183 215.442L182.182 215.441C182.039 214.745 181.896 214.047 181.745 213.351C180.214 213.914 180.215 213.919 180.396 215.197L180.404 215.255C180.932 218.977 181.987 222.572 183.039 226.156L183.039 226.157L183.039 226.157L183.039 226.157L183.039 226.157L183.039 226.157L183.039 226.158L183.039 226.158L183.039 226.158L183.04 226.158L183.04 226.158L183.04 226.159L183.04 226.159L183.04 226.159L183.04 226.159L183.04 226.159L183.04 226.16L183.04 226.16L183.04 226.16L183.04 226.16L183.04 226.16L183.04 226.161L183.04 226.161L183.04 226.161L183.04 226.161C183.2 226.707 183.36 227.253 183.519 227.799C184.692 231.848 186.03 235.868 188.373 239.464C188.83 240.166 189.4 240.72 189.968 241.273C190.227 241.524 190.485 241.775 190.733 242.04C191.086 242.329 191.56 242.417 191.994 242.276C192.556 241.944 193.072 241.972 193.626 242.002C193.768 242.01 193.912 242.018 194.06 242.02L194.085 242.02C194.12 242.021 194.156 242.022 194.192 242.023L194.273 242.025C195.076 242.045 196.028 242.069 196.482 241.057ZM191.581 168.685C191.308 168.201 191.054 167.725 190.805 167.259L190.805 167.259C190.277 166.27 189.774 165.328 189.169 164.456C187.106 161.482 186.387 158.066 185.668 154.651L185.668 154.65C185.499 153.847 185.33 153.044 185.143 152.247C184.773 150.661 185.252 149.155 185.726 147.667C185.815 147.389 185.903 147.112 185.985 146.835C186.047 146.628 186.299 146.477 186.559 146.321C186.682 146.248 186.806 146.173 186.913 146.091L186.923 146.138L186.928 146.166C187.075 146.903 187.215 147.604 187.417 148.613L188.316 145.334C188.563 145.285 188.805 145.251 189.038 145.219L189.039 145.219C189.55 145.148 190.022 145.082 190.422 144.876C191.027 144.599 191.732 144.672 192.265 145.067C192.663 145.293 192.97 145.681 193.291 146.087C193.434 146.268 193.58 146.452 193.738 146.627C192.902 148.248 193.179 149.873 193.599 151.602C193.886 151.602 194.165 151.702 194.448 151.804C194.954 151.986 195.476 152.173 196.089 151.808C196.409 151.72 196.75 151.797 197.001 152.014C197.36 152.394 197.751 152.752 198.142 153.109L198.142 153.11L198.142 153.11L198.143 153.11L198.143 153.11L198.143 153.11L198.143 153.11L198.143 153.11L198.143 153.11L198.143 153.11L198.143 153.11L198.143 153.111L198.144 153.111L198.144 153.111L198.144 153.111L198.144 153.111L198.144 153.111L198.144 153.111L198.144 153.111L198.144 153.111L198.145 153.111L198.145 153.112L198.145 153.112L198.145 153.112C199.408 154.267 200.674 155.424 200.903 157.354C200.908 157.397 200.913 157.441 200.918 157.485C200.966 157.916 201.022 158.416 201.279 158.664C201.458 158.837 201.441 159.067 201.424 159.295C201.4 159.611 201.376 159.924 201.873 160.081C202.342 160.229 202.208 160.547 202.072 160.871C202.003 161.034 201.935 161.197 201.941 161.342C201.997 161.876 202.015 162.413 201.994 162.949C201.909 163.438 201.783 163.918 201.619 164.386C199.428 165.504 197.539 167.142 196.114 169.158L191.581 168.685ZM157.608 59.4311C157.34 59.5238 157.073 59.6171 156.808 59.71C155.881 60.0349 154.968 60.3549 154.042 60.6259C153.968 60.648 153.832 60.4598 153.661 60.2223C153.571 60.0963 153.47 59.9563 153.363 59.8265C153.07 60.1674 152.753 60.486 152.413 60.7798C152 61.0526 151.573 61.304 151.135 61.5328L151.021 61.6013C150.198 62.0951 149.382 62.585 148.714 61.3149C148.681 61.2527 148.572 61.2354 148.458 61.2171C148.387 61.2058 148.314 61.1941 148.256 61.1711C147.983 61.0631 147.706 60.9817 147.43 60.9008C146.617 60.662 145.818 60.4272 145.167 59.5231C144.888 59.1367 144.561 58.7748 144.231 58.4087C143.727 57.8511 143.214 57.2837 142.851 56.6051C142.22 55.586 141.737 54.4805 141.417 53.3221C141.013 51.4551 140.617 49.61 141.445 47.7754C141.766 47.2736 142.144 46.8121 142.574 46.4007L143.716 48.0268C143.92 47.6999 144.093 47.3474 144.268 46.9912L144.268 46.9911L144.268 46.9909L144.268 46.9908C144.73 46.0498 145.205 45.0824 146.297 44.4906L147.473 46.0125L147.952 44.2624C148.464 44.3118 148.968 44.3309 149.468 44.3498C150.568 44.3915 151.642 44.4322 152.702 44.7931C153.529 45.0362 154.239 45.5713 154.705 46.3005C154.888 46.6099 155.098 46.9011 155.307 47.193L155.307 47.1932C155.712 47.7571 156.119 48.3236 156.349 49.0287C156.507 49.5174 156.726 49.986 156.948 50.4591L156.948 50.4593C157.165 50.9214 157.383 51.3878 157.549 51.8815C157.891 52.9078 157.97 53.9606 158.048 55.0118C158.094 55.6412 158.141 56.2701 158.244 56.8924C158.336 57.4384 158.108 58.0397 157.882 58.635C157.78 58.9035 157.679 59.1707 157.608 59.4311ZM42.7877 82.8743L44.1996 77.721L43.7899 77.4954C43.5823 77.8359 43.3327 78.1727 43.0831 78.5095C42.5164 79.2742 41.9496 80.039 41.874 80.8468C41.8433 81.1839 41.7953 81.5246 41.7467 81.8685C41.5927 82.9605 41.4342 84.0847 41.8114 85.2262C42.0339 85.8994 42.165 86.6072 42.296 87.3146C42.5997 88.9538 42.9028 90.5904 44.3416 91.7864C44.3014 93.0313 45.1256 93.6975 45.9169 94.3372L45.917 94.3372C46.1296 94.5091 46.3398 94.679 46.5303 94.8577C47.7623 96.0142 49.1012 97.1777 51.096 96.5393C52.4233 96.1146 53.7701 95.7523 55.1029 95.3938L55.1031 95.3937L55.1034 95.3936L55.1036 95.3936C55.6858 95.237 56.2654 95.0811 56.8395 94.921C56.9957 94.1498 57.2105 93.3916 57.4819 92.653C58.1364 91.2226 57.8103 89.7682 57.299 88.5295C56.9996 87.8059 56.9532 87.0003 57.1675 86.2443C56.9847 85.4105 56.54 84.8128 56.1084 84.233C55.7272 83.7207 55.3563 83.2223 55.1855 82.5872C54.9084 81.9435 54.3549 81.4632 53.6818 81.2821C53.2838 81.1966 52.896 81.0458 52.5067 80.8944C51.6254 80.5516 50.7362 80.2059 49.7034 80.6073C49.5456 80.6687 49.311 80.4947 49.0586 80.3075C48.8842 80.1781 48.7012 80.0424 48.5291 79.9736C48.396 79.9202 48.2272 79.9561 48.0034 80.0038C47.8845 80.0291 47.7502 80.0577 47.5974 80.078C47.7918 79.6216 47.9123 79.137 47.9544 78.6428C47.9207 78.2236 47.619 77.5196 47.3649 77.4886C46.6076 77.4356 45.8462 77.4999 45.1073 77.6795C44.5533 77.7879 44.4666 78.2429 44.3823 78.685C44.3573 78.8162 44.3326 78.9463 44.2959 79.0658C44.2226 79.3035 44.1534 79.5425 44.0842 79.7817C43.7757 80.8481 43.4665 81.9168 42.7877 82.8743ZM83.1464 116.331L80.787 112.148C80.9841 111.243 81.2432 110.353 81.5625 109.484C81.7033 109.152 82.2887 108.942 82.711 108.84C82.8223 108.813 82.9863 109.009 83.1499 109.204L83.15 109.205C83.2212 109.29 83.2924 109.375 83.359 109.441C83.437 109.354 83.5133 109.262 83.5902 109.168C84.0413 108.62 84.5137 108.045 85.4586 108.514C85.6659 108.639 85.9124 108.682 86.15 108.634C86.8631 108.319 87.6297 108.007 88.3171 108.42C88.5518 108.561 88.7935 108.698 89.0365 108.836C90.0698 109.421 91.1261 110.018 91.7626 111.002C93.3162 113.403 94.7242 115.936 95.0211 118.871C95.2291 120.622 95.2689 122.39 95.1397 124.15C95.0674 125.073 94.4769 125.875 93.6205 126.213C92.9986 126.438 92.3811 126.677 91.7638 126.916L91.7637 126.916L91.7636 126.916L91.7634 126.916L91.7633 126.916L91.7632 126.916L91.7631 126.916L91.763 126.916L91.7629 126.916L91.7628 126.916L91.7627 126.916L91.7626 126.916L91.7625 126.916L91.7624 126.916L91.7623 126.916L91.7622 126.916L91.7621 126.916L91.762 126.916L91.7618 126.916L91.7617 126.916L91.7613 126.917C90.7768 127.297 89.7925 127.678 88.7908 128.003C88.2016 128.197 87.568 128.202 86.9776 128.017C83.6005 126.767 81.585 124.449 81.6434 120.227C81.6462 120.026 81.6272 119.816 81.6084 119.607C81.5696 119.176 81.5309 118.748 81.6819 118.4C82.0943 117.659 82.5853 116.965 83.1464 116.331ZM65.4205 203.208L65.307 204.73C65.8541 204.055 66.1573 203.437 65.7911 202.538C65.5575 201.963 65.4608 201.349 65.3633 200.73C65.232 199.896 65.0992 199.053 64.628 198.285C64.3007 197.834 64.0271 197.346 63.8127 196.83C62.8882 193.547 60.7303 191.245 58.2125 189.189C58.1815 189.164 58.1486 189.136 58.1144 189.108C57.8264 188.868 57.4416 188.549 57.2637 188.628C56.6948 188.882 56.3559 188.634 55.9967 188.371L55.9965 188.371L55.9963 188.37C55.9105 188.308 55.8237 188.244 55.7322 188.186C55.4663 188.019 55.0168 187.827 54.8084 187.942C54.1051 188.328 53.3595 188.411 52.6079 188.496C52.4456 188.514 52.283 188.532 52.1205 188.553C51.9184 188.58 51.5318 188.657 51.7313 189.177C51.8286 189.432 51.7829 189.743 51.7307 190.097C51.7054 190.269 51.6786 190.451 51.6659 190.642C50.6612 189.736 49.7678 189.214 48.8379 190.007C48.8725 190.357 48.8853 190.704 48.8977 191.044C48.9243 191.768 48.9496 192.456 49.1832 193.061C49.408 193.644 49.5589 194.259 49.7098 194.874C50.0327 196.19 50.3561 197.507 51.4034 198.516C52.091 201.429 54.0546 203.438 56.0258 205.455C56.192 205.625 56.3582 205.795 56.5237 205.965C57.1106 206.713 58.112 206.991 59 206.651L59.0276 206.642L59.0538 206.633C59.076 206.626 59.0986 206.618 59.1215 206.61L59.1246 206.608L59.1253 206.608C59.4873 206.48 59.9254 206.324 60.3106 206.935C60.5166 207.142 60.8038 207.246 61.0944 207.218C61.3849 207.19 61.6486 207.033 61.8137 206.79C62.1988 206.132 62.8348 205.73 63.4731 205.326C64.2957 204.806 65.1221 204.283 65.4205 203.208ZM240.501 132.346L241.073 131.025C241.122 131.086 241.172 131.137 241.215 131.183C241.295 131.266 241.357 131.33 241.365 131.4C241.419 131.855 241.485 132.309 241.551 132.763L241.551 132.763C241.728 133.977 241.905 135.19 241.845 136.434L241.843 136.479L241.837 136.606L241.837 136.612C241.792 137.624 241.749 138.586 240.626 139.08C240.318 139.216 240.163 139.551 240.009 139.887C239.758 140.43 239.507 140.974 238.602 140.669C237.614 141.59 236.55 141.213 235.52 140.847L235.44 140.819C235.05 141.504 234.615 142.162 234.137 142.788C233.576 143.436 232.377 143.334 231.25 142.646C231.146 142.582 231.051 142.487 230.959 142.393C230.823 142.256 230.691 142.123 230.536 142.095L230.481 142.085C228.508 141.726 228.504 141.725 228.105 139.937C227.856 139.049 227.658 138.147 227.51 137.236C227.429 136.193 226.902 135.239 226.067 134.621C224.788 133.611 224.123 132.005 224.308 130.375C224.46 128.906 225.465 127.795 226.987 127.122L227.342 128.008L227.727 128.966L228.324 130.452C228.429 130.068 228.521 129.725 228.606 129.41L228.606 129.41L228.607 129.409L228.607 129.408L228.607 129.408L228.607 129.407L228.607 129.406L228.607 129.406L228.607 129.406L228.608 129.405L228.608 129.405L228.608 129.404L228.608 129.404L228.608 129.403L228.608 129.403L228.608 129.403L228.608 129.403L228.608 129.402C228.779 128.769 228.92 128.248 229.073 127.73C229.256 127.112 229.317 127.104 230.03 127.016C230.211 126.993 230.434 126.965 230.712 126.921C231.044 126.868 231.394 126.928 231.743 126.988C232.422 127.105 233.102 127.221 233.652 126.508L236.255 127.115C237.858 127.487 239.218 128.047 239.47 130.028C239.537 130.567 239.82 131.077 240.112 131.604L240.112 131.604L240.113 131.605C240.247 131.846 240.383 132.092 240.501 132.346ZM0.681708 76.0291C0.420407 77.551 1.20065 79.0566 2.58732 79.7061L3.97436 77.9112C4.02128 79.3113 4.31312 80.4385 5.76561 81.0129C6.11075 80.6133 6.47577 80.2315 6.85926 79.8691C6.96363 79.7782 7.09883 79.7087 7.23274 79.6399C7.61012 79.4459 7.97729 79.2571 7.61571 78.6107L9.00936 79.1085C9.55149 78.4599 10.2767 77.5933 10.9564 76.7816C11.0953 76.8603 11.2311 76.9382 11.3647 77.0148L11.3652 77.015C11.7889 77.2581 12.1914 77.4889 12.6058 77.6954C12.6781 77.7343 12.9465 77.5769 12.9671 77.4766C13.0109 77.2593 13.0363 76.8965 12.9192 76.8178C12.802 76.7388 12.6413 76.7073 12.4858 76.6768L12.4858 76.6768C12.2984 76.6401 12.1186 76.6049 12.0319 76.4899C11.9335 76.3612 11.9609 76.1349 11.9983 75.8265C12.0177 75.6659 12.0398 75.4831 12.0483 75.2803L12.7699 76.3971C12.9209 75.8458 13.0697 75.304 13.2165 74.7696L13.2165 74.7694L13.2166 74.7693L13.2166 74.7691L13.2167 74.769L13.2167 74.7688L13.2168 74.7687L13.2168 74.7685L13.2168 74.7684L13.2169 74.7682L13.2169 74.7681L13.2169 74.768L13.217 74.7678L13.217 74.7677L13.217 74.7676L13.2171 74.7674L13.2171 74.7673C13.7565 72.8034 14.2686 70.9391 14.7637 69.0704C14.7933 68.9578 14.7533 68.8302 14.7124 68.6998C14.6807 68.5985 14.6484 68.4955 14.6479 68.3967C14.6453 67.8506 14.5426 67.3034 14.442 66.7669C14.2435 65.7089 14.0528 64.6924 14.652 63.8074C14.5377 62.4169 13.645 62.0943 12.8058 61.791C12.2553 61.592 11.7278 61.4014 11.4581 60.9231C11.1111 60.9996 10.7668 61.1096 10.4312 61.2167C9.709 61.4473 9.02706 61.6651 8.44527 61.5093C7.80742 61.3387 7.25282 61.5419 6.709 61.7411C6.15457 61.9442 5.61135 62.1433 5.00255 61.9379C4.84638 61.8851 4.38122 62.2624 4.31763 62.5099C4.20296 62.9546 3.95464 63.3161 3.70344 63.6817C3.42317 64.0896 3.13932 64.5028 3.03345 65.0428C2.62271 67.1595 2.05468 69.2429 1.33419 71.2753C0.948573 72.3536 0.877047 73.4581 0.806018 74.5549C0.774029 75.0489 0.742141 75.5413 0.681708 76.0291ZM147.577 238.174C147.388 238.116 147.203 238.052 147.022 237.989C146.026 237.644 145.131 237.334 144.308 238.36C143.669 236.749 143.811 235.767 145.125 234.985C145.459 234.787 145.768 234.554 146.078 234.321C146.609 233.92 147.145 233.517 147.824 233.273C148.367 233.077 148.806 232.612 149.251 232.139L149.251 232.139L149.251 232.139L149.251 232.139L149.251 232.139L149.251 232.139L149.252 232.139L149.252 232.139L149.252 232.139L149.252 232.138L149.252 232.138L149.252 232.138L149.252 232.138L149.252 232.138L149.253 232.138L149.253 232.138C149.578 231.792 149.907 231.443 150.284 231.193C150.759 230.876 151.329 230.705 151.899 230.533L151.899 230.533L151.899 230.533L151.9 230.533C152.153 230.456 152.407 230.38 152.653 230.291L153.229 231.288L151.891 231.783L151.936 232.105L153.705 232.3C153.731 232.38 153.751 232.489 153.774 232.612C153.833 232.938 153.91 233.361 154.162 233.596C156.241 235.536 157.207 238.089 158.083 240.678C158.254 241.182 158.293 241.729 158.332 242.278C158.359 242.655 158.386 243.034 158.455 243.4C158.479 243.525 158.502 243.644 158.524 243.757C158.893 245.677 158.984 246.151 158.248 247.758C157.684 248.988 157.074 250.297 155.782 251.073C155.23 251.359 154.787 251.82 154.52 252.385C154.101 253.709 153.313 253.724 152.261 253.361C151.959 253.261 151.644 253.21 151.326 253.211C149.317 253.206 149.138 253.101 148.602 251.399C147.941 249.301 147.837 247.128 147.734 244.959L147.734 244.956L147.734 244.953L147.734 244.95L147.734 244.948L147.734 244.947C147.713 244.514 147.693 244.082 147.667 243.651C147.593 242.376 147.59 241.097 147.587 239.834L147.587 239.833C147.585 239.276 147.584 238.723 147.577 238.174ZM124.007 203.018L124.01 203.021C124.18 203.189 124.351 203.358 124.521 203.529C125.02 202.774 125.75 202.252 126.272 202.903C127.015 203.834 127.344 203.221 127.606 202.71C127.657 202.61 127.701 202.503 127.745 202.397C127.895 202.03 128.042 201.671 128.469 201.651C129.135 201.62 129.565 201.228 129.989 200.841C130.172 200.674 130.353 200.508 130.552 200.373C131.087 200.008 131.707 199.31 131.729 198.741C131.723 197.767 131.503 196.807 131.085 195.93C130.855 195.406 130.511 194.936 130.165 194.465L130.165 194.465L130.165 194.464L130.165 194.464L130.165 194.464L130.165 194.464L130.164 194.464L130.164 194.464L130.164 194.464L130.164 194.464L130.164 194.464L130.164 194.463L130.164 194.463L130.164 194.463L130.164 194.463C129.937 194.154 129.709 193.843 129.514 193.517C129.265 193.103 129.031 192.679 128.797 192.255L128.797 192.255L128.797 192.254L128.797 192.254L128.797 192.254L128.797 192.254L128.797 192.254L128.797 192.254L128.796 192.254L128.796 192.254L128.796 192.254L128.796 192.253L128.796 192.253C128.131 191.048 127.466 189.842 126.469 188.864C126.031 188.435 125.645 187.952 125.259 187.47C124.534 186.564 123.809 185.659 122.741 185.105C121.656 184.638 120.754 183.826 120.171 182.793C119.556 181.618 118.849 181.58 117.422 182.093C117.251 182.155 117.045 182.208 116.837 182.261C116.349 182.386 115.853 182.514 115.779 182.763C115.586 183.411 115.206 183.314 114.828 183.218C114.479 183.129 114.132 183.04 113.933 183.533C114.327 186.233 115.53 188.785 116.727 191.323C116.864 191.613 117 191.903 117.136 192.194C117.98 194.001 118.994 195.727 120.008 197.453L120.008 197.453L120.008 197.453L120.008 197.453L120.008 197.453L120.008 197.453L120.008 197.453L120.008 197.453L120.008 197.454L120.008 197.454L120.008 197.454L120.009 197.454L120.009 197.454L120.009 197.454L120.009 197.454L120.009 197.455C120.503 198.296 120.997 199.137 121.471 199.987C122.129 201.166 123.06 202.084 124.007 203.018ZM224.176 215.899C221.802 214.052 221.195 211.674 220.601 209.347L220.578 209.258C220.038 207.185 219.645 205.076 219.4 202.945C219.35 202.483 219.272 202.018 219.193 201.55C218.91 199.872 218.621 198.158 219.597 196.399C220.322 197.277 220.456 198.316 220.594 199.394C220.72 200.375 220.851 201.387 221.435 202.337C221.642 200.911 221.496 199.578 221.344 198.193C221.228 197.13 221.108 196.036 221.142 194.845L222.468 196.139L222.694 195.662L223.051 194.908L225.432 195.094C225.467 195.215 225.505 195.351 225.545 195.498L225.545 195.498C225.645 195.861 225.762 196.29 225.913 196.705C226.732 198.961 226.749 198.973 228.903 200.484L228.956 200.521C229.199 200.706 229.422 200.918 229.619 201.151C231.184 202.879 232.537 204.714 233.004 207.1C233.235 208.176 233.254 209.288 233.062 210.374C233.032 210.605 233.079 210.839 233.195 211.039C233.312 211.215 233.328 211.44 233.237 211.632C233.146 211.824 232.962 211.953 232.752 211.973C232.069 212.148 231.521 212.553 230.974 212.958C230.533 213.285 230.091 213.612 229.579 213.816C229.145 214.026 228.822 214.415 228.694 214.882C228.405 215.542 226.825 216.065 226.243 215.751C226.123 215.686 226.037 215.555 225.95 215.425C225.778 215.164 225.605 214.902 225.16 215.157C224.817 215.382 224.488 215.63 224.176 215.899ZM160.894 138.647L162.413 138.803C162.863 138.364 162.877 137.811 162.892 137.254C162.905 136.751 162.919 136.246 163.254 135.819C163.358 135.567 163.277 135.277 163.058 135.119C162.839 134.96 162.54 134.975 162.336 135.155C162.249 135.205 162.058 135.073 161.867 134.94C161.779 134.879 161.691 134.819 161.614 134.776C161.652 134.713 161.695 134.632 161.738 134.551L161.738 134.551C161.83 134.377 161.922 134.203 161.97 134.214C163.25 134.51 163.165 133.344 163.117 132.843C163.077 132.424 163.043 132.003 163.01 131.581C162.874 129.86 162.738 128.13 162.123 126.504L162.115 126.482C161.796 125.638 161.389 124.563 160.037 125.176C159.967 125.205 159.797 125.115 159.726 125.033C158.936 124.141 158.242 124.352 157.58 125.199C157.001 125.939 156.731 125.455 156.52 125.076C156.507 125.054 156.495 125.032 156.483 125.011L154.889 125.698L154.864 127.895C154.649 127.677 154.548 127.405 154.449 127.138C154.281 126.683 154.118 126.244 153.398 126.116C153.328 126.185 153.255 126.258 153.178 126.335C152.961 126.55 152.719 126.791 152.473 127.028C152.355 127.142 152.235 127.287 152.115 127.432C151.848 127.753 151.582 128.074 151.332 128.061C150.3 128.006 150.382 128.596 150.456 129.129C150.466 129.199 150.476 129.267 150.482 129.333C150.562 130.092 150.677 130.847 150.792 131.602C150.873 132.132 150.954 132.663 151.022 133.196C151.033 133.518 151.01 133.84 150.956 134.158L150.536 134.178C150.275 132.525 150.015 130.873 149.727 129.049L149.704 128.903L149.669 128.675L149.651 128.565C148.903 129.938 149.063 131.052 149.25 132.265C149.553 134.182 150.1 136.05 150.877 137.824C151.856 140.073 153.215 142.09 156.022 142.323C156.248 142.361 156.469 142.419 156.683 142.499L161.178 139.911L160.894 138.647ZM167.836 85.1888L168.548 86.4518L168.813 85.7919C168.968 85.4051 169.114 85.0423 169.268 84.659C169.576 84.6772 169.887 84.6915 170.201 84.7058L170.202 84.7058C170.946 84.7397 171.703 84.7743 172.454 84.8646C173.107 84.9443 173.744 85.1211 174.344 85.3893C174.534 85.4746 174.536 85.6629 174.538 85.8761C174.541 86.1698 174.544 86.511 175.041 86.6957C175.5 86.8654 175.695 87.6456 175.873 88.3565L175.873 88.3571L175.873 88.3575L175.873 88.3581C175.91 88.5049 175.946 88.6487 175.983 88.7836C176.041 88.9898 175.995 89.239 175.948 89.491C175.85 90.0229 175.75 90.568 176.609 90.7513L176.343 91.9869L176.098 93.1262C176.092 93.154 176.088 93.1822 176.084 93.2105L176.081 93.2406L176.076 93.2869L176.076 93.2873L176.076 93.2877L176.076 93.2881C176.074 93.3123 176.071 93.3365 176.068 93.3607L178.629 97.8994C179.024 97.9785 179.411 98.089 179.788 98.2299C180.353 98.4868 180.828 99.252 180.424 99.5355C179.944 99.8728 180.024 100.287 180.1 100.68C180.165 101.021 180.228 101.346 179.92 101.593C177.926 101.646 177.329 101.548 175.904 100.873C176.054 101.794 176.185 102.597 176.351 103.606C176.261 103.656 176.156 103.732 176.046 103.813L176.045 103.814L176.045 103.814L176.045 103.814C175.782 104.007 175.486 104.224 175.268 104.163C174.851 104.045 174.424 103.95 173.996 103.855C172.411 103.501 170.818 103.146 169.744 101.663C169.322 101.194 168.952 100.68 168.641 100.13C168.172 99.0248 167.78 97.8849 167.389 96.7463L167.385 96.7355C167.32 96.546 167.255 96.3565 167.19 96.1673C167.058 95.7871 166.949 95.3992 166.84 95.0113L166.84 95.011L166.84 95.0106L166.84 95.0103L166.84 95.0101L166.839 95.0098L166.839 95.0096L166.839 95.0093L166.839 95.0091L166.839 95.0088L166.839 95.0086L166.839 95.0083L166.839 95.0081C166.76 94.7271 166.681 94.4461 166.593 94.1679C166.471 93.7793 166.468 93.3645 166.465 92.9498L166.465 92.9497C166.461 92.2678 166.456 91.5862 165.922 91.0218C166.263 90.2449 166.125 89.4984 165.984 88.7354C165.941 88.5014 165.897 88.2658 165.867 88.0273C165.74 87.3878 165.878 86.7223 166.25 86.186C166.622 85.6496 167.195 85.2893 167.836 85.1888ZM106.311 30.0572L104.113 29.455C102.72 28.9028 101.218 28.6811 99.7234 28.8069C99.0846 28.8575 98.4764 29.0795 97.8635 29.3032C97.2406 29.5306 96.6128 29.7598 95.943 29.8126C95.7918 29.8241 95.581 30.1371 95.5412 30.3381C95.4128 30.9577 95.3285 31.5855 95.289 32.2167C95.2239 33.396 95.6287 34.4521 96.0348 35.5117C96.1568 35.83 96.2789 36.1487 96.3885 36.4711C97.3244 39.222 98.7265 41.477 101.748 42.2423C101.977 42.2852 102.182 42.4112 102.325 42.5965C102.731 43.3772 103.273 43.2215 103.813 43.0664C104.109 42.9816 104.403 42.8971 104.674 42.9657C105.592 42.1224 106.761 41.8799 107.9 41.6435C108.304 41.5597 108.704 41.4766 109.088 41.3678C110.395 40.9975 110.91 40.3715 110.944 39.3124C110.95 39.1018 110.96 38.8901 110.97 38.6779C111.044 37.016 111.121 35.3201 109.918 33.8986C109.758 33.7076 109.649 33.4706 109.54 33.2331C109.312 32.7357 109.082 32.2359 108.373 32.1509C108.169 32.078 108.018 31.9039 107.974 31.6909C108.105 30.5202 107.33 30.3208 106.551 30.1204C106.471 30.0997 106.39 30.079 106.311 30.0572ZM68.376 144.912L68.5989 145.646C68.7101 146.012 68.8297 146.406 68.9987 146.962C69.1293 146.653 69.2277 146.422 69.3056 146.239L69.3069 146.236L69.3073 146.235L69.3085 146.232C69.4321 145.943 69.5038 145.774 69.5713 145.604L69.5726 145.601L69.5727 145.601C69.7399 145.178 69.8302 144.95 69.9977 144.846C70.1945 144.725 70.4978 144.775 71.1573 144.885L71.1574 144.885L71.1606 144.886C71.1998 144.892 71.2435 144.903 71.2882 144.913C71.4189 144.944 71.5579 144.976 71.6149 144.924C72.2825 144.256 73.3258 144.159 74.098 144.694C75.0302 145.215 75.85 145.918 76.5103 146.761C78.7731 150.077 79.5868 153.914 79.957 157.85C80.0005 158.31 79.8224 158.791 79.6454 159.27C79.564 159.49 79.4828 159.709 79.4236 159.926L78.5425 159.575C78.3661 160.453 77.9985 161.037 76.9441 160.968C76.5431 161.001 76.1829 161.23 75.982 161.582C75.7531 162.183 75.336 162.145 74.9267 162.108C74.6478 162.083 74.3726 162.058 74.1632 162.236C73.987 161.645 73.5267 161.616 73.0634 161.588C72.6594 161.563 72.2532 161.538 72.0308 161.14C71.8705 160.852 71.6768 160.575 71.4836 160.299L71.4836 160.299C71.1253 159.786 70.7691 159.277 70.6322 158.709C70.1187 156.79 69.8127 154.82 69.7194 152.833C69.7616 151.962 69.4523 151.113 68.8621 150.479C67.8925 149.54 67.2441 148.314 67.0097 146.977L67.0023 146.932C66.8214 145.816 66.82 145.808 68.376 144.912ZM120.908 128.34C120.785 128.615 120.699 128.905 120.651 129.203C120.925 129.964 121.267 130.661 121.603 131.345L121.603 131.345L121.603 131.345L121.603 131.345L121.603 131.345L121.603 131.346L121.603 131.346L121.603 131.346L121.604 131.346C121.763 131.671 121.921 131.992 122.069 132.316C122.983 134.327 123.925 136.392 125.82 137.846C127.086 138.816 128.453 139.005 129.474 138.207C129.766 137.979 130.13 137.855 130.492 137.731C131.14 137.509 131.782 137.29 132.001 136.479C133.354 136.649 133.43 135.502 133.417 134.76C133.382 132.683 133.294 130.569 132.349 128.655C132.174 128.303 131.93 127.987 131.686 127.671C131.46 127.378 131.234 127.085 131.063 126.763C130.78 126.231 130.559 125.665 130.321 125.055L130.321 125.054L130.321 125.054C130.212 124.777 130.101 124.49 129.978 124.193L126.292 123.916C126.202 124.113 126.118 124.296 126.034 124.481L126.033 124.483C125.901 124.77 125.768 125.062 125.607 125.415L123.558 122.513C123.327 122.637 123.098 122.791 122.882 122.936C122.443 123.231 122.058 123.49 121.824 123.39C121.444 123.229 121.087 123.251 120.729 123.273C120.378 123.294 120.027 123.315 119.655 123.164C119.787 123.5 120.112 123.641 120.425 123.778C120.911 123.99 121.368 124.19 121.036 125.078L120.056 124.292C119.371 125.324 119.99 125.97 120.634 126.642C120.697 126.708 120.761 126.774 120.823 126.841C120.817 126.474 120.813 126.107 120.808 125.682L120.808 125.662L120.808 125.656L120.805 125.374C121.049 125.473 121.274 125.613 121.471 125.788C121.664 126.042 121.788 126.341 121.832 126.658C121.839 126.744 121.748 126.831 121.652 126.924C121.563 127.009 121.47 127.098 121.444 127.195C121.416 127.303 121.44 127.43 121.465 127.553C121.492 127.69 121.518 127.824 121.472 127.928C121.43 128.022 121.311 128.079 121.191 128.138C121.075 128.193 120.959 128.25 120.908 128.34ZM151.351 171.1L152.42 171.829C152.766 170.75 152.366 169.922 151.96 169.084C151.615 168.371 151.265 167.65 151.368 166.759C151.687 166.972 151.983 167.221 152.247 167.5C152.571 168 152.869 168.517 153.139 169.049C153.291 168.308 153.177 167.538 152.817 166.876C153.754 166.212 154.166 165.92 154.607 165.863C154.953 165.818 155.317 165.917 155.967 166.092C156.136 166.44 156.288 166.812 156.441 167.187C156.791 168.048 157.149 168.927 157.752 169.572C158.334 170.195 158.564 170.922 158.793 171.643C158.94 172.107 159.087 172.569 159.325 172.999C159.851 174.118 160.207 175.311 160.382 176.538C160.557 177.216 160.528 177.932 160.301 178.596C159.968 179.334 159.33 180.38 158.729 180.451C158.038 180.533 157.842 180.894 157.64 181.263C157.553 181.424 157.464 181.586 157.334 181.728C156.746 182.368 156.021 182.95 155.013 182.846C154.8 182.824 154.56 182.843 154.323 182.862C153.909 182.895 153.505 182.926 153.275 182.735C152.355 182.024 151.581 181.141 150.995 180.134C150.027 178.224 149.183 176.252 148.467 174.232C148.344 173.898 148.453 173.477 148.581 172.981C148.645 172.729 148.715 172.458 148.762 172.169L149.458 173.143C149.564 172.297 150.119 171.956 150.644 171.634C150.908 171.472 151.164 171.315 151.351 171.1ZM113.622 254.707L114.699 255.758C114.789 254.914 114.822 254.065 114.797 253.217C114.759 252.865 114.438 252.297 114.185 252.262C113.63 252.185 113.388 251.797 113.162 251.435C113.016 251.201 112.877 250.978 112.665 250.857C112.128 250.555 111.899 250.108 111.672 249.664C111.583 249.49 111.494 249.317 111.387 249.153C111.171 248.82 110.993 248.45 110.817 248.082C110.517 247.459 110.22 246.841 109.744 246.422C109.269 246.004 108.982 245.504 108.698 245.01L108.698 245.01C108.514 244.691 108.332 244.374 108.102 244.084C107.696 243.572 107.28 243.067 106.865 242.564C106.682 242.341 106.499 242.118 106.316 241.895L103.738 241.189C103.755 242.13 103.303 242.007 102.847 241.883C102.49 241.786 102.131 241.688 101.992 242.098C101.874 242.419 102.058 242.702 102.243 242.988C102.501 243.385 102.762 243.788 102.219 244.308C102.122 244.164 102.035 244.007 101.948 243.851C101.604 243.236 101.271 242.639 100.407 242.893C100.093 244.298 100.747 245.39 101.401 246.483L101.495 246.641C101.634 246.845 101.755 247.062 101.855 247.288C102.794 249.844 103.92 252.325 105.224 254.71C105.378 254.988 105.465 255.303 105.553 255.617L105.553 255.618C105.634 255.91 105.715 256.202 105.849 256.466L105.905 256.575C106.398 257.546 106.909 258.551 108.18 258.714C108.384 258.219 108.235 257.758 108.089 257.305C107.912 256.76 107.74 256.227 108.196 255.664L109.94 258.756L111.405 258.363L111.006 255.441C112.392 256.576 112.55 256.51 113.622 254.707ZM142.354 90.64C142.629 90.7357 142.89 90.7666 143.139 90.796C143.616 90.8526 144.046 90.9035 144.44 91.3974L143.391 91.4676C143.396 91.7496 143.403 92.032 143.41 92.3144L143.41 92.3155L143.41 92.3159L143.41 92.3162C143.43 93.0746 143.449 93.8337 143.421 94.5884C143.412 94.8549 143.147 95.313 142.953 95.3389C142.328 95.4239 141.873 95.7874 141.422 96.1472C141.104 96.4018 140.787 96.6546 140.414 96.8055C139.972 96.9343 139.505 96.9479 139.057 96.8451C138.945 96.8276 138.849 96.7186 138.752 96.6097C138.656 96.5016 138.56 96.3936 138.45 96.3759C138.142 96.3884 137.838 96.4578 137.554 96.5806L137.553 96.4675C137.546 95.0092 137.546 94.9338 136.125 93.9643C135.583 93.5951 135.402 93.0656 135.218 92.5287C135.106 92.2012 134.993 91.8709 134.796 91.5726L134.475 91.952L134.268 92.1958L134.056 92.4465C134.001 92.3429 133.928 92.237 133.856 92.1334C133.707 91.9173 133.565 91.7113 133.608 91.5569C134.405 88.6992 134.42 88.6335 133.595 86.5645C132.941 87.2217 133.113 87.8932 133.295 88.604C133.416 89.075 133.541 89.5632 133.433 90.076C133.325 90.0274 133.196 89.9839 133.07 89.9415C132.811 89.8539 132.566 89.7714 132.553 89.6596C132.523 89.4142 132.486 89.1687 132.449 88.9236C132.237 87.512 132.025 86.1125 133.252 84.8089C133.308 84.7491 133.36 84.6924 133.408 84.6393L133.408 84.6391C133.742 84.2709 133.916 84.0784 134.498 84.2275C134.95 84.2956 135.413 84.2442 135.842 84.0782C136.625 83.8355 137.399 83.5611 138.209 83.2741C138.544 83.1553 138.885 83.0344 139.236 82.9127L139.465 83.611C139.736 83.9391 140.114 83.9007 140.439 83.8678C140.882 83.8228 141.224 83.7881 141.052 84.716C141.02 84.8919 141.19 84.8823 141.393 84.8709C141.716 84.8527 142.124 84.8297 141.927 85.5464C141.841 85.8592 142.15 86.2803 142.448 86.6855L142.448 86.6857C142.579 86.8651 142.709 87.0414 142.8 87.2037C142.661 87.3952 142.525 87.5815 142.39 87.7655L142.388 87.7678C142.28 87.9157 142.173 88.0621 142.066 88.2085C142.16 88.323 142.255 88.4372 142.349 88.5511L142.73 88.1415C142.928 87.9276 143.139 87.7009 143.379 87.4422C143.542 88.0521 143.655 88.4766 143.77 88.9068L143.908 89.421C143.429 89.7973 142.892 90.2189 142.354 90.64ZM41.7178 138.188L42.6723 140.454C43.0036 140.341 43.3212 140.191 43.6192 140.006C43.8187 139.776 44.0047 139.534 44.1764 139.282L44.2074 139.245C44.3903 139.03 44.6814 138.687 44.746 138.722C45.2568 139.006 45.7233 138.776 46.1887 138.547C46.6875 138.302 47.1849 138.057 47.7339 138.446C47.868 138.284 47.9935 138.116 48.1099 137.941C47.6984 137.588 47.8818 137.268 48.0631 136.951C48.1584 136.784 48.2532 136.619 48.2608 136.45C48.2936 135.722 48.0805 135.076 47.8697 134.437C47.7208 133.986 47.573 133.538 47.5142 133.067C47.2727 131.03 46.5684 129.079 45.4562 127.365L40.4002 126.721L39.7595 129.06C39.4243 128.824 39.2466 128.458 39.0744 128.103C38.8272 127.593 38.5911 127.106 37.9159 127.061C37.2684 128.304 36.9618 129.591 37.4063 130.805C37.7741 131.81 38.0576 132.838 38.3407 133.865C38.6138 134.856 38.8865 135.846 39.2344 136.812C39.5214 137.754 40.0519 138.602 40.7716 139.269L41.7178 138.188ZM87.445 183.95L87.7854 186.406L88.5453 185.357C88.5532 185.366 88.5618 185.374 88.5707 185.383C88.5829 185.394 88.5959 185.406 88.6093 185.418L88.6224 185.429L88.6451 185.448C88.7207 185.512 88.7954 185.575 88.7951 185.637C88.7793 186.503 88.9868 187.357 89.3971 188.116C89.6291 188.608 89.7925 189.131 89.8827 189.669C90.0242 190.592 90.6134 191.381 91.4537 191.773C91.6917 191.502 91.9372 191.223 92.051 191.093L93.087 192.437C93.0547 192.555 93.0345 192.648 93.0192 192.718C92.9958 192.825 92.9841 192.879 92.9583 192.887C92.5567 193.017 92.1515 193.136 91.7669 193.248L91.7665 193.248C91.6645 193.278 91.564 193.307 91.4654 193.336L91.3593 194.486L91.258 195.58L89.8166 194.306C89.3317 194.853 88.8451 195.403 88.3218 195.994L87.1333 195.811L86.8409 196.878C85.3976 197.455 84.4517 197.065 83.6762 195.827C83.3556 195.315 83.0081 194.821 82.6557 194.32C82.0792 193.5 81.4898 192.662 80.9846 191.699L82.7175 191.124C82.7095 190.064 82.4787 189.02 82.0404 188.059C81.7287 187.339 81.6003 186.538 81.4741 185.751C81.4193 185.409 81.3649 185.07 81.296 184.741C82.0355 184.206 82.4247 184.59 82.8348 184.995L82.835 184.995C82.9434 185.102 83.0534 185.211 83.1717 185.304C83.2018 185.228 83.2411 185.153 83.2796 185.08C83.3606 184.926 83.4378 184.778 83.4185 184.646C83.2383 183.432 83.5909 182.953 84.6158 183.183C85.2821 183.334 85.9399 183.522 86.5881 183.708L86.5885 183.708L86.5888 183.708L86.5899 183.708L86.5918 183.709C86.8781 183.791 87.1626 183.872 87.445 183.95ZM17.7536 176.88L17.0847 174.881C17.0233 174.902 16.9625 174.922 16.9026 174.941C16.3883 175.108 15.9358 175.255 15.6759 175.939C15.0836 177.496 15.3418 179.016 15.599 180.532C15.6652 180.922 15.7314 181.312 15.7829 181.702C15.8863 182.484 17.0157 183.04 18.0185 183.09C18.4185 183.12 18.8129 183.201 19.1922 183.331C20.131 183.694 21.1904 183.245 21.5933 182.313C21.9288 181.672 22.219 181.26 22.9822 181.252C23.6544 181.291 24.2384 180.785 24.3002 180.109C24.3137 180.042 24.3263 179.974 24.3388 179.906C24.4412 179.35 24.5465 178.779 25.217 178.488C25.4445 178.245 25.5352 177.903 25.4578 177.58C25.4038 177.429 25.2347 177.299 25.0763 177.178L25.0762 177.178C24.9091 177.05 24.7539 176.931 24.7585 176.806C24.7643 176.648 24.9152 176.505 25.0718 176.355C25.2156 176.218 25.3641 176.077 25.4096 175.916C25.7288 174.793 25.0603 173.976 24.2788 173.397C24.0697 173.242 23.8119 173.165 23.5479 173.086C23.1495 172.966 22.7369 172.842 22.4555 172.44C22.4296 172.403 22.1833 172.533 21.8932 172.685L21.8928 172.685C21.6619 172.806 21.4033 172.942 21.206 173.02C20.9667 173.074 20.7215 173.096 20.4767 173.085L19.939 175.048C19.8153 174.359 19.7532 174.013 19.7026 173.728L18.3179 173.349C18.3048 173.63 18.2934 173.902 18.2823 174.167L18.2823 174.167L18.2823 174.167C18.2524 174.883 18.2245 175.55 18.1695 176.215C18.1595 176.337 18.07 176.453 17.9546 176.603C17.8923 176.683 17.8225 176.774 17.7536 176.88ZM105.272 152.59L107.083 153.712C107.617 153.026 107.915 152.309 107.426 151.431C108.044 151.113 108.38 151.442 108.729 151.784C108.968 152.019 109.214 152.259 109.561 152.299L110.15 151.079C110.567 150.82 110.833 151.055 111.113 151.301C111.39 151.545 111.681 151.802 112.147 151.607C112.726 151.367 112.897 151.774 113.079 152.21C113.198 152.497 113.324 152.796 113.574 152.93C113.937 153.206 114.208 153.587 114.352 154.022C114.599 154.588 114.692 155.198 114.786 155.81C114.916 156.662 115.047 157.519 115.593 158.272C115.743 158.479 115.628 158.882 115.496 159.341L115.496 159.342C115.431 159.571 115.361 159.815 115.318 160.056C114.726 159.529 114.262 159.829 113.796 160.13C113.354 160.416 112.909 160.703 112.351 160.285C112.178 160.447 112.063 160.676 111.944 160.909C111.67 161.45 111.383 162.018 110.346 161.839L109.959 160.377C109.538 160.867 109.317 161.124 109.107 161.369L109.053 161.432C108.228 161.404 108.029 160.667 107.888 160.147L107.869 160.076C107.414 158.384 106.538 156.839 105.324 155.586C104.562 154.786 104.308 153.754 105.272 152.59ZM107.496 87.1665L111.172 85.6053C111.183 85.3498 111.219 85.0719 111.256 84.7837C111.344 84.1109 111.438 83.3819 111.236 82.7507C110.753 81.1289 110.022 79.5937 109.07 78.1999C107.936 76.6246 106.481 75.1835 104.18 76.4072C104.033 76.4856 103.836 76.4681 103.613 76.4482C103.497 76.4379 103.374 76.427 103.248 76.4287C103.231 76.6551 103.193 76.8773 103.156 77.0889C103.082 77.5212 103.015 77.9096 103.152 78.2003C103.244 78.3959 103.34 78.5898 103.435 78.7832C104.003 79.9353 104.563 81.0708 104.294 82.4532C104.851 83.2358 104.999 84.1405 105.146 85.0382C105.234 85.5768 105.321 86.1128 105.497 86.6187L107.496 87.1665Z" fill="#9B9B9B"/>
</svg>
